<?xml version="1.0" encoding="UTF-8" standalone="no"?>
<!DOCTYPE svg PUBLIC "-//W3C//DTD SVG 1.1//EN"
 "http://www.w3.org/Graphics/SVG/1.1/DTD/svg11.dtd">
<!-- Generated by graphviz version 13.1.2 (0)
 -->
<!-- Pages: 1 -->
<svg width="504pt" height="215pt"
 viewBox="0.00 0.00 504.00 215.00" xmlns="http://www.w3.org/2000/svg" xmlns:xlink="http://www.w3.org/1999/xlink">
<g id="graph0" class="graph" transform="scale(0.565772 0.565772) rotate(0) translate(36 344.8)">
<!-- 0 -->
<g id="node1" class="node">
<title>0</title>
<ellipse fill="#bbbbbb" stroke="black" cx="27" cy="-153.4" rx="27" ry="27.4"/>
<text xml:space="preserve" text-anchor="middle" x="27" y="-140.28" font-family="Helvetica,Arial,sans-serif" font-size="30.00">S</text>
</g>
<!-- 1 -->
<g id="node2" class="node">
<title>1</title>
<ellipse fill="#eeeeee" stroke="black" cx="166.48" cy="-153.4" rx="40.48" ry="27.4"/>
<text xml:space="preserve" text-anchor="middle" x="166.48" y="-140.28" font-family="Helvetica,Arial,sans-serif" font-size="30.00">1,1</text>
</g>
<!-- 0&#45;&gt;1 -->
<g id="edge1" class="edge">
<title>0&#45;&gt;1</title>
<path fill="none" stroke="black" stroke-width="5" d="M54.18,-153.4C69.87,-153.4 90.43,-153.4 109.6,-153.4"/>
<polygon fill="black" stroke="black" stroke-width="5" points="109.35,-157.78 119.35,-153.4 109.35,-149.03 109.35,-157.78"/>
<text xml:space="preserve" text-anchor="middle" x="61.17" y="-124.9" font-family="Helvetica,Arial,sans-serif" font-size="30.00">1.00</text>
</g>
<!-- 2 -->
<g id="node3" class="node">
<title>2</title>
<ellipse fill="#eeeeee" stroke="black" cx="319.45" cy="-217.4" rx="40.48" ry="27.4"/>
<text xml:space="preserve" text-anchor="middle" x="319.45" y="-204.28" font-family="Helvetica,Arial,sans-serif" font-size="30.00">2,1</text>
</g>
<!-- 1&#45;&gt;2 -->
<g id="edge2" class="edge">
<title>1&#45;&gt;2</title>
<path fill="none" stroke="black" stroke-width="5" d="M201.36,-167.76C221.49,-176.3 247.36,-187.27 269.66,-196.72"/>
<polygon fill="black" stroke="black" stroke-width="5" points="267.76,-200.67 278.68,-200.54 271.18,-192.61 267.76,-200.67"/>
<text xml:space="preserve" text-anchor="middle" x="271.88" y="-156.92" font-family="Helvetica,Arial,sans-serif" font-size="30.00">2.00</text>
</g>
<!-- 3 -->
<g id="node4" class="node">
<title>3</title>
<ellipse fill="#eeeeee" stroke="black" cx="319.45" cy="-90.4" rx="40.48" ry="27.4"/>
<text xml:space="preserve" text-anchor="middle" x="319.45" y="-77.28" font-family="Helvetica,Arial,sans-serif" font-size="30.00">1,2</text>
</g>
<!-- 1&#45;&gt;3 -->
<g id="edge3" class="edge">
<title>1&#45;&gt;3</title>
<path fill="none" stroke="black" stroke-width="5" d="M201.36,-139.26C221.49,-130.86 247.36,-120.06 269.66,-110.76"/>
<polygon fill="black" stroke="black" stroke-width="5" points="271.12,-114.89 278.66,-107 267.75,-106.82 271.12,-114.89"/>
<text xml:space="preserve" text-anchor="middle" x="214.13" y="-93.38" font-family="Helvetica,Arial,sans-serif" font-size="30.00">2.00</text>
</g>
<!-- 4 -->
<g id="node5" class="node">
<title>4</title>
<ellipse fill="#eeeeee" stroke="black" cx="472.41" cy="-281.4" rx="40.48" ry="27.4"/>
<text xml:space="preserve" text-anchor="middle" x="472.41" y="-268.28" font-family="Helvetica,Arial,sans-serif" font-size="30.00">3,1</text>
</g>
<!-- 2&#45;&gt;4 -->
<g id="edge4" class="edge">
<title>2&#45;&gt;4</title>
<path fill="none" stroke="black" stroke-width="5" d="M354.32,-231.76C374.45,-240.3 400.33,-251.27 422.63,-260.72"/>
<polygon fill="black" stroke="black" stroke-width="5" points="420.73,-264.67 431.64,-264.54 424.14,-256.61 420.73,-264.67"/>
<text xml:space="preserve" text-anchor="middle" x="424.84" y="-220.92" font-family="Helvetica,Arial,sans-serif" font-size="30.00">3.00</text>
</g>
<!-- 5 -->
<g id="node6" class="node">
<title>5</title>
<ellipse fill="#eeeeee" stroke="black" cx="472.41" cy="-154.4" rx="40.48" ry="27.4"/>
<text xml:space="preserve" text-anchor="middle" x="472.41" y="-141.28" font-family="Helvetica,Arial,sans-serif" font-size="30.00">2,2</text>
</g>
<!-- 2&#45;&gt;5 -->
<g id="edge5" class="edge">
<title>2&#45;&gt;5</title>
<path fill="none" stroke="black" stroke-width="5" d="M354.32,-203.26C374.45,-194.86 400.33,-184.06 422.63,-174.76"/>
<polygon fill="black" stroke="black" stroke-width="5" points="424.08,-178.89 431.63,-171 420.71,-170.82 424.08,-178.89"/>
<text xml:space="preserve" text-anchor="middle" x="367.09" y="-157.38" font-family="Helvetica,Arial,sans-serif" font-size="30.00">3.00</text>
</g>
<!-- 3&#45;&gt;5 -->
<g id="edge6" class="edge">
<title>3&#45;&gt;5</title>
<path fill="none" stroke="black" stroke-width="5" d="M354.32,-104.76C374.45,-113.3 400.33,-124.27 422.63,-133.72"/>
<polygon fill="black" stroke="black" stroke-width="5" points="420.73,-137.67 431.64,-137.54 424.14,-129.61 420.73,-137.67"/>
<text xml:space="preserve" text-anchor="middle" x="424.84" y="-93.92" font-family="Helvetica,Arial,sans-serif" font-size="30.00">3.00</text>
</g>
<!-- 6 -->
<g id="node7" class="node">
<title>6</title>
<ellipse fill="#eeeeee" stroke="black" cx="472.41" cy="-27.4" rx="40.48" ry="27.4"/>
<text xml:space="preserve" text-anchor="middle" x="472.41" y="-14.28" font-family="Helvetica,Arial,sans-serif" font-size="30.00">1,3</text>
</g>
<!-- 3&#45;&gt;6 -->
<g id="edge7" class="edge">
<title>3&#45;&gt;6</title>
<path fill="none" stroke="black" stroke-width="5" d="M354.32,-76.26C374.45,-67.86 400.33,-57.06 422.63,-47.76"/>
<polygon fill="black" stroke="black" stroke-width="5" points="424.08,-51.89 431.63,-44 420.71,-43.82 424.08,-51.89"/>
<text xml:space="preserve" text-anchor="middle" x="367.09" y="-30.38" font-family="Helvetica,Arial,sans-serif" font-size="30.00">3.00</text>
</g>
<!-- 7 -->
<g id="node8" class="node">
<title>7</title>
<ellipse fill="#eeeeee" stroke="black" cx="625.37" cy="-217.4" rx="40.48" ry="27.4"/>
<text xml:space="preserve" text-anchor="middle" x="625.37" y="-204.28" font-family="Helvetica,Arial,sans-serif" font-size="30.00">3,2</text>
</g>
<!-- 4&#45;&gt;7 -->
<g id="edge8" class="edge">
<title>4&#45;&gt;7</title>
<path fill="none" stroke="black" stroke-width="5" d="M507.29,-267.04C527.42,-258.5 553.29,-247.54 575.59,-238.08"/>
<polygon fill="black" stroke="black" stroke-width="5" points="577.1,-242.19 584.6,-234.26 573.69,-234.14 577.1,-242.19"/>
<text xml:space="preserve" text-anchor="middle" x="520.06" y="-220.88" font-family="Helvetica,Arial,sans-serif" font-size="30.00">4.00</text>
</g>
<!-- 5&#45;&gt;7 -->
<g id="edge9" class="edge">
<title>5&#45;&gt;7</title>
<path fill="none" stroke="black" stroke-width="5" d="M507.29,-168.54C527.42,-176.94 553.29,-187.74 575.59,-197.04"/>
<polygon fill="black" stroke="black" stroke-width="5" points="573.68,-200.98 584.59,-200.8 577.05,-192.91 573.68,-200.98"/>
<text xml:space="preserve" text-anchor="middle" x="577.81" y="-157.42" font-family="Helvetica,Arial,sans-serif" font-size="30.00">4.00</text>
</g>
<!-- 8 -->
<g id="node9" class="node">
<title>8</title>
<ellipse fill="#eeeeee" stroke="black" cx="625.37" cy="-90.4" rx="40.48" ry="27.4"/>
<text xml:space="preserve" text-anchor="middle" x="625.37" y="-77.28" font-family="Helvetica,Arial,sans-serif" font-size="30.00">2,3</text>
</g>
<!-- 5&#45;&gt;8 -->
<g id="edge10" class="edge">
<title>5&#45;&gt;8</title>
<path fill="none" stroke="black" stroke-width="5" d="M507.29,-140.04C527.42,-131.5 553.29,-120.54 575.59,-111.08"/>
<polygon fill="black" stroke="black" stroke-width="5" points="577.1,-115.19 584.6,-107.26 573.69,-107.14 577.1,-115.19"/>
<text xml:space="preserve" text-anchor="middle" x="520.06" y="-93.88" font-family="Helvetica,Arial,sans-serif" font-size="30.00">4.00</text>
</g>
<!-- 6&#45;&gt;8 -->
<g id="edge11" class="edge">
<title>6&#45;&gt;8</title>
<path fill="none" stroke="black" stroke-width="5" d="M507.29,-41.54C527.42,-49.94 553.29,-60.74 575.59,-70.04"/>
<polygon fill="black" stroke="black" stroke-width="5" points="573.68,-73.98 584.59,-73.8 577.05,-65.91 573.68,-73.98"/>
<text xml:space="preserve" text-anchor="middle" x="577.81" y="-30.42" font-family="Helvetica,Arial,sans-serif" font-size="30.00">4.00</text>
</g>
<!-- 9 -->
<g id="node10" class="node">
<title>9</title>
<ellipse fill="#bbbbbb" stroke="black" cx="778.34" cy="-153.4" rx="40.48" ry="27.4"/>
<text xml:space="preserve" text-anchor="middle" x="778.34" y="-140.28" font-family="Helvetica,Arial,sans-serif" font-size="30.00">3,3</text>
</g>
<!-- 7&#45;&gt;9 -->
<g id="edge12" class="edge">
<title>7&#45;&gt;9</title>
<path fill="none" stroke="black" stroke-width="5" d="M660.25,-203.04C680.38,-194.5 706.25,-183.54 728.56,-174.08"/>
<polygon fill="black" stroke="black" stroke-width="5" points="730.07,-178.19 737.57,-170.26 726.65,-170.14 730.07,-178.19"/>
<text xml:space="preserve" text-anchor="middle" x="673.02" y="-156.88" font-family="Helvetica,Arial,sans-serif" font-size="30.00">5.00</text>
</g>
<!-- 8&#45;&gt;9 -->
<g id="edge13" class="edge">
<title>8&#45;&gt;9</title>
<path fill="none" stroke="black" stroke-width="5" d="M660.25,-104.54C680.38,-112.94 706.25,-123.74 728.56,-133.04"/>
<polygon fill="black" stroke="black" stroke-width="5" points="726.64,-136.98 737.55,-136.8 730.01,-128.91 726.64,-136.98"/>
<text xml:space="preserve" text-anchor="middle" x="730.77" y="-93.42" font-family="Helvetica,Arial,sans-serif" font-size="30.00">5.00</text>
</g>
</g>
</svg>
