<?xml version="1.0" encoding="UTF-8" standalone="no"?>
<!DOCTYPE svg PUBLIC "-//W3C//DTD SVG 1.1//EN"
 "http://www.w3.org/Graphics/SVG/1.1/DTD/svg11.dtd">
<!-- Generated by graphviz version 13.1.2 (0)
 -->
<!-- Pages: 1 -->
<svg width="504pt" height="362pt"
 viewBox="0.00 0.00 504.00 362.00" xmlns="http://www.w3.org/2000/svg" xmlns:xlink="http://www.w3.org/1999/xlink">
<g id="graph0" class="graph" transform="scale(0.753887 0.753887) rotate(0) translate(36 444.75)">
<polygon fill="#ffffff" stroke="none" points="-36,36 -36,-444.75 632.54,-444.75 632.54,36 -36,36"/>
<!-- 0 -->
<g id="node1" class="node">
<title>0</title>
<ellipse fill="#bbbbbb" stroke="black" cx="27" cy="-39.75" rx="27" ry="18"/>
<text xml:space="preserve" text-anchor="middle" x="27" y="-34.72" font-family="Helvetica,Arial,sans-serif" font-size="12.00">S</text>
</g>
<!-- 1 -->
<g id="node2" class="node">
<title>1</title>
<ellipse fill="#eeeeee" stroke="black" cx="157.82" cy="-39.75" rx="31.82" ry="18"/>
<text xml:space="preserve" text-anchor="middle" x="157.82" y="-34.72" font-family="Helvetica,Arial,sans-serif" font-size="12.00">4,0,0,0</text>
</g>
<!-- 0&#45;&gt;1 -->
<g id="edge1" class="edge">
<title>0&#45;&gt;1</title>
<path fill="none" stroke="#b41c46" d="M54.38,-39.75C71.73,-39.75 94.82,-39.75 114.68,-39.75"/>
<polygon fill="#b41c46" stroke="#b41c46" points="114.43,-43.25 124.43,-39.75 114.43,-36.25 114.43,-43.25"/>
<text xml:space="preserve" text-anchor="middle" x="78.35" y="-28.35" font-family="Helvetica,Arial,sans-serif" font-size="12.00" fill="#b41c46">1.00</text>
</g>
<!-- 2 -->
<g id="node3" class="node">
<title>2</title>
<ellipse fill="#eeeeee" stroke="black" cx="293.45" cy="-147.75" rx="31.82" ry="18"/>
<text xml:space="preserve" text-anchor="middle" x="293.45" y="-142.72" font-family="Helvetica,Arial,sans-serif" font-size="12.00">2,1,0,0</text>
</g>
<!-- 1&#45;&gt;2 -->
<g id="edge2" class="edge">
<title>1&#45;&gt;2</title>
<path fill="none" stroke="#85511a" d="M177.12,-54.54C200.01,-73.04 239.39,-104.86 265.67,-126.1"/>
<polygon fill="#85511a" stroke="#85511a" points="263.22,-128.62 273.19,-132.19 267.62,-123.18 263.22,-128.62"/>
<text xml:space="preserve" text-anchor="middle" x="202.13" y="-82.45" font-family="Helvetica,Arial,sans-serif" font-size="12.00" fill="#85511a">6.00e&#45;01</text>
</g>
<!-- 6 -->
<g id="node4" class="node">
<title>6</title>
<ellipse fill="#bbbbbb" stroke="black" cx="293.45" cy="-39.75" rx="27" ry="18"/>
<text xml:space="preserve" text-anchor="middle" x="293.45" y="-34.72" font-family="Helvetica,Arial,sans-serif" font-size="12.00">AUX</text>
</g>
<!-- 1&#45;&gt;6 -->
<g id="edge3" class="edge">
<title>1&#45;&gt;6</title>
<path fill="none" stroke="#685e1a" d="M171.63,-23.03C194.37,-10.82 242.02,-9.49 270.21,-19.03"/>
<polygon fill="#685e1a" stroke="#685e1a" points="268.69,-22.18 279.25,-22.98 271.49,-15.77 268.69,-22.18"/>
<text xml:space="preserve" text-anchor="middle" x="202.56" y="-1.35" font-family="Helvetica,Arial,sans-serif" font-size="12.00" fill="#685e1a">4.00e&#45;01</text>
</g>
<!-- 3 -->
<g id="node5" class="node">
<title>3</title>
<ellipse fill="#eeeeee" stroke="black" cx="429.08" cy="-363.75" rx="31.82" ry="18"/>
<text xml:space="preserve" text-anchor="middle" x="429.08" y="-358.72" font-family="Helvetica,Arial,sans-serif" font-size="12.00">0,2,0,0</text>
</g>
<!-- 2&#45;&gt;3 -->
<g id="edge4" class="edge">
<title>2&#45;&gt;3</title>
<path fill="none" stroke="#46671a" d="M304.94,-164.7C328.06,-202.07 383.56,-291.79 411.47,-336.9"/>
<polygon fill="#46671a" stroke="#46671a" points="408.43,-338.63 416.67,-345.29 414.38,-334.95 408.43,-338.63"/>
<text xml:space="preserve" text-anchor="middle" x="337.54" y="-244.18" font-family="Helvetica,Arial,sans-serif" font-size="12.00" fill="#46671a">1.67e&#45;01</text>
</g>
<!-- 4 -->
<g id="node6" class="node">
<title>4</title>
<ellipse fill="#eeeeee" stroke="black" cx="429.08" cy="-201.75" rx="31.82" ry="18"/>
<text xml:space="preserve" text-anchor="middle" x="429.08" y="-196.72" font-family="Helvetica,Arial,sans-serif" font-size="12.00">1,0,1,0</text>
</g>
<!-- 2&#45;&gt;4 -->
<g id="edge5" class="edge">
<title>2&#45;&gt;4</title>
<path fill="none" stroke="#1b6a48" d="M319.9,-158.03C340.34,-166.29 369.28,-177.99 392.09,-187.2"/>
<polygon fill="#1b6a48" stroke="#1b6a48" points="390.74,-190.43 401.33,-190.94 393.37,-183.94 390.74,-190.43"/>
<text xml:space="preserve" text-anchor="middle" x="385.27" y="-163.5" font-family="Helvetica,Arial,sans-serif" font-size="12.00" fill="#1b6a48">3.33e&#45;01</text>
</g>
<!-- 7 -->
<g id="node7" class="node">
<title>7</title>
<ellipse fill="#bbbbbb" stroke="black" cx="429.08" cy="-93.75" rx="27" ry="18"/>
<text xml:space="preserve" text-anchor="middle" x="429.08" y="-88.72" font-family="Helvetica,Arial,sans-serif" font-size="12.00">AUX</text>
</g>
<!-- 2&#45;&gt;7 -->
<g id="edge6" class="edge">
<title>2&#45;&gt;7</title>
<path fill="none" stroke="#1d6862" d="M302.81,-130.42C321.27,-109.57 366.32,-88.28 397.05,-83.08"/>
<polygon fill="#1d6862" stroke="#1d6862" points="397.35,-86.57 406.93,-82.05 396.62,-79.6 397.35,-86.57"/>
<text xml:space="preserve" text-anchor="middle" x="327.88" y="-86.55" font-family="Helvetica,Arial,sans-serif" font-size="12.00" fill="#1d6862">5.00e&#45;01</text>
</g>
<!-- 6&#45;&gt;1 -->
<g id="edge11" class="edge">
<title>6&#45;&gt;1</title>
<path fill="none" stroke="#b41c46" d="M280.64,-55.91C258.56,-68.5 210.67,-70.12 181.95,-60.77"/>
<polygon fill="#b41c46" stroke="#b41c46" points="183.6,-57.67 173.03,-57.05 180.91,-64.13 183.6,-57.67"/>
<text xml:space="preserve" text-anchor="middle" x="214.4" y="-55.35" font-family="Helvetica,Arial,sans-serif" font-size="12.00" fill="#b41c46">1.00</text>
</g>
<!-- 5 -->
<g id="node8" class="node">
<title>5</title>
<ellipse fill="#bbbbbb" stroke="black" cx="564.72" cy="-282.75" rx="31.82" ry="18"/>
<text xml:space="preserve" text-anchor="middle" x="564.72" y="-277.72" font-family="Helvetica,Arial,sans-serif" font-size="12.00">0,0,0,1</text>
</g>
<!-- 3&#45;&gt;5 -->
<g id="edge7" class="edge">
<title>3&#45;&gt;5</title>
<path fill="none" stroke="#1e6577" d="M451.56,-350.74C473.47,-337.45 507.72,-316.69 532.6,-301.61"/>
<polygon fill="#1e6577" stroke="#1e6577" points="534.27,-304.69 541.01,-296.52 530.64,-298.71 534.27,-304.69"/>
<text xml:space="preserve" text-anchor="middle" x="473.44" y="-311.75" font-family="Helvetica,Arial,sans-serif" font-size="12.00" fill="#1e6577">3.33e&#45;01</text>
</g>
<!-- 8 -->
<g id="node9" class="node">
<title>8</title>
<ellipse fill="#bbbbbb" stroke="black" cx="564.72" cy="-390.75" rx="27" ry="18"/>
<text xml:space="preserve" text-anchor="middle" x="564.72" y="-385.72" font-family="Helvetica,Arial,sans-serif" font-size="12.00">AUX</text>
</g>
<!-- 3&#45;&gt;8 -->
<g id="edge8" class="edge">
<title>3&#45;&gt;8</title>
<path fill="none" stroke="#235cad" d="M447.01,-348.48C472.06,-342.72 518.84,-351.92 544.92,-367.49"/>
<polygon fill="#235cad" stroke="#235cad" points="542.7,-370.2 552.88,-373.13 546.75,-364.49 542.7,-370.2"/>
<text xml:space="preserve" text-anchor="middle" x="526.41" y="-340.13" font-family="Helvetica,Arial,sans-serif" font-size="12.00" fill="#235cad">6.67e&#45;01</text>
</g>
<!-- 4&#45;&gt;5 -->
<g id="edge9" class="edge">
<title>4&#45;&gt;5</title>
<path fill="none" stroke="#9225ba" d="M451.56,-214.76C473.47,-228.05 507.72,-248.8 532.6,-263.89"/>
<polygon fill="#9225ba" stroke="#9225ba" points="530.64,-266.79 541.01,-268.98 534.27,-260.81 530.64,-266.79"/>
<text xml:space="preserve" text-anchor="middle" x="473.44" y="-230.95" font-family="Helvetica,Arial,sans-serif" font-size="12.00" fill="#9225ba">3.33e&#45;01</text>
</g>
<!-- 9 -->
<g id="node10" class="node">
<title>9</title>
<ellipse fill="#bbbbbb" stroke="black" cx="564.72" cy="-174.75" rx="27" ry="18"/>
<text xml:space="preserve" text-anchor="middle" x="564.72" y="-169.72" font-family="Helvetica,Arial,sans-serif" font-size="12.00">AUX</text>
</g>
<!-- 4&#45;&gt;9 -->
<g id="edge10" class="edge">
<title>4&#45;&gt;9</title>
<path fill="none" stroke="#a72086" d="M440.13,-184.63C460.61,-167.38 507.79,-155.56 537.57,-158.09"/>
<polygon fill="#a72086" stroke="#a72086" points="536.84,-161.52 547.29,-159.72 538.01,-154.61 536.84,-161.52"/>
<text xml:space="preserve" text-anchor="middle" x="468.56" y="-150.86" font-family="Helvetica,Arial,sans-serif" font-size="12.00" fill="#a72086">6.67e&#45;01</text>
</g>
<!-- 7&#45;&gt;2 -->
<g id="edge12" class="edge">
<title>7&#45;&gt;2</title>
<path fill="none" stroke="#85511a" d="M419.88,-110.9C402.35,-130.86 360.32,-151.27 329.74,-157.62"/>
<polygon fill="#85511a" stroke="#85511a" points="329.5,-154.11 320.15,-159.1 330.56,-161.03 329.5,-154.11"/>
<text xml:space="preserve" text-anchor="middle" x="361.03" y="-131.4" font-family="Helvetica,Arial,sans-serif" font-size="12.00" fill="#85511a">1.00</text>
</g>
<!-- 8&#45;&gt;3 -->
<g id="edge13" class="edge">
<title>8&#45;&gt;3</title>
<path fill="none" stroke="#685e1a" d="M548.78,-405.52C524.41,-412.23 476.16,-403.09 449.29,-387.25"/>
<polygon fill="#685e1a" stroke="#685e1a" points="451.58,-384.58 441.37,-381.74 447.57,-390.33 451.58,-384.58"/>
<text xml:space="preserve" text-anchor="middle" x="480.55" y="-391.83" font-family="Helvetica,Arial,sans-serif" font-size="12.00" fill="#685e1a">1.00</text>
</g>
<!-- 9&#45;&gt;4 -->
<g id="edge14" class="edge">
<title>9&#45;&gt;4</title>
<path fill="none" stroke="#46671a" d="M554.12,-191.49C534.28,-208.6 488.11,-220.48 458.03,-218.54"/>
<polygon fill="#46671a" stroke="#46671a" points="458.89,-215.13 448.51,-217.23 457.94,-222.06 458.89,-215.13"/>
<text xml:space="preserve" text-anchor="middle" x="491.15" y="-202.57" font-family="Helvetica,Arial,sans-serif" font-size="12.00" fill="#46671a">1.00</text>
</g>
</g>
</svg>
