<?xml version="1.0" encoding="UTF-8" standalone="no"?>
<!DOCTYPE svg PUBLIC "-//W3C//DTD SVG 1.1//EN"
 "http://www.w3.org/Graphics/SVG/1.1/DTD/svg11.dtd">
<!-- Generated by graphviz version 13.1.2 (0)
 -->
<!-- Pages: 1 -->
<svg width="504pt" height="210pt"
 viewBox="0.00 0.00 504.00 210.00" xmlns="http://www.w3.org/2000/svg" xmlns:xlink="http://www.w3.org/1999/xlink">
<g id="graph0" class="graph" transform="scale(0.302912 0.302912) rotate(0) translate(36 656.45)">
<polygon fill="#ffffff" stroke="none" points="-36,36 -36,-656.45 1627.85,-656.45 1627.85,36 -36,36"/>
<!-- 0 -->
<g id="node1" class="node">
<title>0</title>
<ellipse fill="#bbbbbb" stroke="black" cx="27" cy="-312.75" rx="27" ry="18"/>
<text xml:space="preserve" text-anchor="middle" x="27" y="-307.72" font-family="Helvetica,Arial,sans-serif" font-size="12.00">S</text>
</g>
<!-- 1 -->
<g id="node2" class="node">
<title>1</title>
<ellipse fill="#eeeeee" stroke="black" cx="315.79" cy="-312.75" rx="45.79" ry="32.7"/>
<text xml:space="preserve" text-anchor="middle" x="315.79" y="-320.47" font-family="Helvetica,Arial,sans-serif" font-size="12.00">0,0,0,0,2,</text>
<text xml:space="preserve" text-anchor="middle" x="315.79" y="-307.72" font-family="Helvetica,Arial,sans-serif" font-size="12.00">0,0,0,0,0,</text>
<text xml:space="preserve" text-anchor="middle" x="315.79" y="-294.97" font-family="Helvetica,Arial,sans-serif" font-size="12.00">0</text>
</g>
<!-- 0&#45;&gt;1 -->
<g id="edge1" class="edge">
<title>0&#45;&gt;1</title>
<path fill="none" stroke="#e02659" d="M54.47,-312.75C100.58,-312.75 196.62,-312.75 258.27,-312.75"/>
<polygon fill="#e02659" stroke="#e02659" points="258.22,-316.25 268.22,-312.75 258.22,-309.25 258.22,-316.25"/>
<text xml:space="preserve" text-anchor="middle" x="153.76" y="-301.35" font-family="Helvetica,Arial,sans-serif" font-size="12.00" fill="#e02659">1.0</text>
</g>
<!-- 2 -->
<g id="node3" class="node">
<title>2</title>
<ellipse fill="#bbbbbb" stroke="black" cx="623.36" cy="-381.75" rx="45.79" ry="32.7"/>
<text xml:space="preserve" text-anchor="middle" x="623.36" y="-389.47" font-family="Helvetica,Arial,sans-serif" font-size="12.00">0,0,0,0,0,</text>
<text xml:space="preserve" text-anchor="middle" x="623.36" y="-376.72" font-family="Helvetica,Arial,sans-serif" font-size="12.00">0,0,0,1,0,</text>
<text xml:space="preserve" text-anchor="middle" x="623.36" y="-363.97" font-family="Helvetica,Arial,sans-serif" font-size="12.00">0</text>
</g>
<!-- 1&#45;&gt;2 -->
<g id="edge2" class="edge">
<title>1&#45;&gt;2</title>
<path fill="none" stroke="#a76723" d="M359.92,-322.49C414.63,-334.84 508.99,-356.15 568.41,-369.57"/>
<polygon fill="#a76723" stroke="#a76723" points="567.44,-372.94 577.97,-371.73 568.98,-366.11 567.44,-372.94"/>
<text xml:space="preserve" text-anchor="middle" x="461.69" y="-335.93" font-family="Helvetica,Arial,sans-serif" font-size="12.00" fill="#a76723">1.0</text>
</g>
<!-- 3 -->
<g id="node4" class="node">
<title>3</title>
<ellipse fill="#eeeeee" stroke="black" cx="623.36" cy="-244.75" rx="45.79" ry="32.7"/>
<text xml:space="preserve" text-anchor="middle" x="623.36" y="-252.47" font-family="Helvetica,Arial,sans-serif" font-size="12.00">0,1,0,1,1,</text>
<text xml:space="preserve" text-anchor="middle" x="623.36" y="-239.72" font-family="Helvetica,Arial,sans-serif" font-size="12.00">0,0,0,0,1,</text>
<text xml:space="preserve" text-anchor="middle" x="623.36" y="-226.97" font-family="Helvetica,Arial,sans-serif" font-size="12.00">0</text>
</g>
<!-- 1&#45;&gt;3 -->
<g id="edge3" class="edge">
<title>1&#45;&gt;3</title>
<path fill="none" stroke="#837623" d="M359.92,-303.15C414.63,-290.98 508.99,-269.98 568.41,-256.75"/>
<polygon fill="#837623" stroke="#837623" points="568.96,-260.22 577.96,-254.63 567.44,-253.38 568.96,-260.22"/>
<text xml:space="preserve" text-anchor="middle" x="446.32" y="-267.27" font-family="Helvetica,Arial,sans-serif" font-size="12.00" fill="#837623">7.00e&#45;01</text>
</g>
<!-- 4 -->
<g id="node5" class="node">
<title>4</title>
<ellipse fill="#eeeeee" stroke="black" cx="930.93" cy="-176.75" rx="45.79" ry="32.7"/>
<text xml:space="preserve" text-anchor="middle" x="930.93" y="-184.47" font-family="Helvetica,Arial,sans-serif" font-size="12.00">0,0,0,0,2,</text>
<text xml:space="preserve" text-anchor="middle" x="930.93" y="-171.72" font-family="Helvetica,Arial,sans-serif" font-size="12.00">0,0,0,0,1,</text>
<text xml:space="preserve" text-anchor="middle" x="930.93" y="-158.97" font-family="Helvetica,Arial,sans-serif" font-size="12.00">0</text>
</g>
<!-- 3&#45;&gt;4 -->
<g id="edge4" class="edge">
<title>3&#45;&gt;4</title>
<path fill="none" stroke="#598123" d="M667.49,-235.15C722.2,-222.98 816.56,-201.98 875.98,-188.75"/>
<polygon fill="#598123" stroke="#598123" points="876.53,-192.22 885.54,-186.63 875.01,-185.38 876.53,-192.22"/>
<text xml:space="preserve" text-anchor="middle" x="769.27" y="-199.27" font-family="Helvetica,Arial,sans-serif" font-size="12.00" fill="#598123">1.0</text>
</g>
<!-- 5 -->
<g id="node6" class="node">
<title>5</title>
<ellipse fill="#eeeeee" stroke="black" cx="930.93" cy="-450.75" rx="45.79" ry="32.7"/>
<text xml:space="preserve" text-anchor="middle" x="930.93" y="-458.47" font-family="Helvetica,Arial,sans-serif" font-size="12.00">0,0,0,1,0,</text>
<text xml:space="preserve" text-anchor="middle" x="930.93" y="-445.72" font-family="Helvetica,Arial,sans-serif" font-size="12.00">1,0,0,0,1,</text>
<text xml:space="preserve" text-anchor="middle" x="930.93" y="-432.97" font-family="Helvetica,Arial,sans-serif" font-size="12.00">0</text>
</g>
<!-- 3&#45;&gt;5 -->
<g id="edge5" class="edge">
<title>3&#45;&gt;5</title>
<path fill="none" stroke="#25855c" d="M657.35,-266.99C713.16,-304.62 826.12,-380.77 887.65,-422.25"/>
<polygon fill="#25855c" stroke="#25855c" points="885.57,-425.07 895.82,-427.76 889.48,-419.26 885.57,-425.07"/>
<text xml:space="preserve" text-anchor="middle" x="768.65" y="-336.19" font-family="Helvetica,Arial,sans-serif" font-size="12.00" fill="#25855c">1.0</text>
</g>
<!-- 6 -->
<g id="node7" class="node">
<title>6</title>
<ellipse fill="#eeeeee" stroke="black" cx="930.93" cy="-313.75" rx="45.79" ry="32.7"/>
<text xml:space="preserve" text-anchor="middle" x="930.93" y="-321.47" font-family="Helvetica,Arial,sans-serif" font-size="12.00">0,1,0,0,0,</text>
<text xml:space="preserve" text-anchor="middle" x="930.93" y="-308.72" font-family="Helvetica,Arial,sans-serif" font-size="12.00">0,0,1,0,1,</text>
<text xml:space="preserve" text-anchor="middle" x="930.93" y="-295.97" font-family="Helvetica,Arial,sans-serif" font-size="12.00">0</text>
</g>
<!-- 3&#45;&gt;6 -->
<g id="edge6" class="edge">
<title>3&#45;&gt;6</title>
<path fill="none" stroke="#26837c" d="M667.49,-254.49C722.2,-266.84 816.56,-288.15 875.98,-301.57"/>
<polygon fill="#26837c" stroke="#26837c" points="875.01,-304.94 885.54,-303.73 876.55,-298.11 875.01,-304.94"/>
<text xml:space="preserve" text-anchor="middle" x="769.27" y="-267.93" font-family="Helvetica,Arial,sans-serif" font-size="12.00" fill="#26837c">1.0</text>
</g>
<!-- 7 -->
<g id="node8" class="node">
<title>7</title>
<ellipse fill="#eeeeee" stroke="black" cx="930.93" cy="-39.75" rx="45.79" ry="32.7"/>
<text xml:space="preserve" text-anchor="middle" x="930.93" y="-47.47" font-family="Helvetica,Arial,sans-serif" font-size="12.00">0,2,0,2,0,</text>
<text xml:space="preserve" text-anchor="middle" x="930.93" y="-34.72" font-family="Helvetica,Arial,sans-serif" font-size="12.00">0,0,0,0,2,</text>
<text xml:space="preserve" text-anchor="middle" x="930.93" y="-21.97" font-family="Helvetica,Arial,sans-serif" font-size="12.00">0</text>
</g>
<!-- 3&#45;&gt;7 -->
<g id="edge7" class="edge">
<title>3&#45;&gt;7</title>
<path fill="none" stroke="#288096" d="M657.35,-222.62C713.16,-185.17 826.12,-109.39 887.65,-68.11"/>
<polygon fill="#288096" stroke="#288096" points="889.46,-71.11 895.82,-62.63 885.56,-65.3 889.46,-71.11"/>
<text xml:space="preserve" text-anchor="middle" x="753.27" y="-131.01" font-family="Helvetica,Arial,sans-serif" font-size="12.00" fill="#288096">7.00e&#45;01</text>
</g>
<!-- 8 -->
<g id="node9" class="node">
<title>8</title>
<ellipse fill="#bbbbbb" stroke="black" cx="1238.5" cy="-313.75" rx="45.79" ry="32.7"/>
<text xml:space="preserve" text-anchor="middle" x="1238.5" y="-321.47" font-family="Helvetica,Arial,sans-serif" font-size="12.00">0,0,0,0,0,</text>
<text xml:space="preserve" text-anchor="middle" x="1238.5" y="-308.72" font-family="Helvetica,Arial,sans-serif" font-size="12.00">0,0,0,1,1,</text>
<text xml:space="preserve" text-anchor="middle" x="1238.5" y="-295.97" font-family="Helvetica,Arial,sans-serif" font-size="12.00">0</text>
</g>
<!-- 4&#45;&gt;8 -->
<g id="edge8" class="edge">
<title>4&#45;&gt;8</title>
<path fill="none" stroke="#2e74d7" d="M970.32,-193.96C1025.66,-218.78 1127.86,-264.6 1188.56,-291.81"/>
<polygon fill="#2e74d7" stroke="#2e74d7" points="1187.08,-294.98 1197.64,-295.88 1189.95,-288.6 1187.08,-294.98"/>
<text xml:space="preserve" text-anchor="middle" x="1076.23" y="-233.74" font-family="Helvetica,Arial,sans-serif" font-size="12.00" fill="#2e74d7">1.0</text>
</g>
<!-- 9 -->
<g id="node10" class="node">
<title>9</title>
<ellipse fill="#eeeeee" stroke="black" cx="1238.5" cy="-176.75" rx="45.79" ry="32.7"/>
<text xml:space="preserve" text-anchor="middle" x="1238.5" y="-184.47" font-family="Helvetica,Arial,sans-serif" font-size="12.00">0,1,0,1,1,</text>
<text xml:space="preserve" text-anchor="middle" x="1238.5" y="-171.72" font-family="Helvetica,Arial,sans-serif" font-size="12.00">0,0,0,0,2,</text>
<text xml:space="preserve" text-anchor="middle" x="1238.5" y="-158.97" font-family="Helvetica,Arial,sans-serif" font-size="12.00">0</text>
</g>
<!-- 4&#45;&gt;9 -->
<g id="edge9" class="edge">
<title>4&#45;&gt;9</title>
<path fill="none" stroke="#b731e7" d="M977.01,-176.75C1031.18,-176.75 1122.08,-176.75 1180.91,-176.75"/>
<polygon fill="#b731e7" stroke="#b731e7" points="1180.71,-180.25 1190.71,-176.75 1180.71,-173.25 1180.71,-180.25"/>
<text xml:space="preserve" text-anchor="middle" x="1060.93" y="-165.35" font-family="Helvetica,Arial,sans-serif" font-size="12.00" fill="#b731e7">7.00e&#45;01</text>
</g>
<!-- 5&#45;&gt;8 -->
<g id="edge10" class="edge">
<title>5&#45;&gt;8</title>
<path fill="none" stroke="#d02ba8" d="M970.32,-433.54C1025.66,-408.72 1127.86,-362.9 1188.56,-335.69"/>
<polygon fill="#d02ba8" stroke="#d02ba8" points="1189.95,-338.9 1197.64,-331.62 1187.08,-332.52 1189.95,-338.9"/>
<text xml:space="preserve" text-anchor="middle" x="1076.23" y="-370.96" font-family="Helvetica,Arial,sans-serif" font-size="12.00" fill="#d02ba8">1.0</text>
</g>
<!-- 10 -->
<g id="node11" class="node">
<title>10</title>
<ellipse fill="#eeeeee" stroke="black" cx="1238.5" cy="-587.75" rx="45.79" ry="32.7"/>
<text xml:space="preserve" text-anchor="middle" x="1238.5" y="-595.47" font-family="Helvetica,Arial,sans-serif" font-size="12.00">0,0,1,2,0,</text>
<text xml:space="preserve" text-anchor="middle" x="1238.5" y="-582.72" font-family="Helvetica,Arial,sans-serif" font-size="12.00">0,0,0,0,2,</text>
<text xml:space="preserve" text-anchor="middle" x="1238.5" y="-569.97" font-family="Helvetica,Arial,sans-serif" font-size="12.00">0</text>
</g>
<!-- 5&#45;&gt;10 -->
<g id="edge11" class="edge">
<title>5&#45;&gt;10</title>
<path fill="none" stroke="#e02659" d="M970.32,-467.96C1025.66,-492.78 1127.86,-538.6 1188.56,-565.81"/>
<polygon fill="#e02659" stroke="#e02659" points="1187.08,-568.98 1197.64,-569.88 1189.95,-562.6 1187.08,-568.98"/>
<text xml:space="preserve" text-anchor="middle" x="1060.85" y="-507.74" font-family="Helvetica,Arial,sans-serif" font-size="12.00" fill="#e02659">7.00e&#45;01</text>
</g>
<!-- 6&#45;&gt;8 -->
<g id="edge12" class="edge">
<title>6&#45;&gt;8</title>
<path fill="none" stroke="#a76723" d="M977.01,-313.75C1031.18,-313.75 1122.08,-313.75 1180.91,-313.75"/>
<polygon fill="#a76723" stroke="#a76723" points="1180.71,-317.25 1190.71,-313.75 1180.71,-310.25 1180.71,-317.25"/>
<text xml:space="preserve" text-anchor="middle" x="1076.31" y="-302.35" font-family="Helvetica,Arial,sans-serif" font-size="12.00" fill="#a76723">1.0</text>
</g>
<!-- 11 -->
<g id="node12" class="node">
<title>11</title>
<ellipse fill="#eeeeee" stroke="black" cx="1238.5" cy="-450.75" rx="45.79" ry="32.7"/>
<text xml:space="preserve" text-anchor="middle" x="1238.5" y="-458.47" font-family="Helvetica,Arial,sans-serif" font-size="12.00">0,2,0,0,0,</text>
<text xml:space="preserve" text-anchor="middle" x="1238.5" y="-445.72" font-family="Helvetica,Arial,sans-serif" font-size="12.00">0,1,0,0,2,</text>
<text xml:space="preserve" text-anchor="middle" x="1238.5" y="-432.97" font-family="Helvetica,Arial,sans-serif" font-size="12.00">0</text>
</g>
<!-- 6&#45;&gt;11 -->
<g id="edge13" class="edge">
<title>6&#45;&gt;11</title>
<path fill="none" stroke="#837623" d="M970.32,-330.96C1025.66,-355.78 1127.86,-401.6 1188.56,-428.81"/>
<polygon fill="#837623" stroke="#837623" points="1187.08,-431.98 1197.64,-432.88 1189.95,-425.6 1187.08,-431.98"/>
<text xml:space="preserve" text-anchor="middle" x="1108.1" y="-370.74" font-family="Helvetica,Arial,sans-serif" font-size="12.00" fill="#837623">7.00e&#45;01</text>
</g>
<!-- 12 -->
<g id="node13" class="node">
<title>12</title>
<ellipse fill="#eeeeee" stroke="black" cx="1238.5" cy="-39.75" rx="45.79" ry="32.7"/>
<text xml:space="preserve" text-anchor="middle" x="1238.5" y="-47.47" font-family="Helvetica,Arial,sans-serif" font-size="12.00">0,2,0,2,0,</text>
<text xml:space="preserve" text-anchor="middle" x="1238.5" y="-34.72" font-family="Helvetica,Arial,sans-serif" font-size="12.00">0,0,0,0,2,</text>
<text xml:space="preserve" text-anchor="middle" x="1238.5" y="-21.97" font-family="Helvetica,Arial,sans-serif" font-size="12.00">1</text>
</g>
<!-- 7&#45;&gt;12 -->
<g id="edge14" class="edge">
<title>7&#45;&gt;12</title>
<path fill="none" stroke="#598123" d="M969.39,-21.29C1024.64,-10.58 1127.98,-9.94 1188.96,-19.38"/>
<polygon fill="#598123" stroke="#598123" points="1188.26,-22.81 1198.71,-21.07 1189.45,-15.91 1188.26,-22.81"/>
<text xml:space="preserve" text-anchor="middle" x="1061.45" y="-1.35" font-family="Helvetica,Arial,sans-serif" font-size="12.00" fill="#598123">7.00e&#45;01</text>
</g>
<!-- 13 -->
<g id="node14" class="node">
<title>13</title>
<ellipse fill="#eeeeee" stroke="black" cx="1546.07" cy="-176.75" rx="45.79" ry="32.7"/>
<text xml:space="preserve" text-anchor="middle" x="1546.07" y="-184.47" font-family="Helvetica,Arial,sans-serif" font-size="12.00">0,1,0,1,1,</text>
<text xml:space="preserve" text-anchor="middle" x="1546.07" y="-171.72" font-family="Helvetica,Arial,sans-serif" font-size="12.00">0,0,0,0,2,</text>
<text xml:space="preserve" text-anchor="middle" x="1546.07" y="-158.97" font-family="Helvetica,Arial,sans-serif" font-size="12.00">1</text>
</g>
<!-- 9&#45;&gt;13 -->
<g id="edge15" class="edge">
<title>9&#45;&gt;13</title>
<path fill="none" stroke="#25855c" d="M1276.97,-158.29C1332.21,-147.58 1435.55,-146.94 1496.53,-156.38"/>
<polygon fill="#25855c" stroke="#25855c" points="1495.83,-159.81 1506.28,-158.07 1497.02,-152.91 1495.83,-159.81"/>
<text xml:space="preserve" text-anchor="middle" x="1369.02" y="-138.35" font-family="Helvetica,Arial,sans-serif" font-size="12.00" fill="#25855c">7.00e&#45;01</text>
</g>
<!-- 14 -->
<g id="node15" class="node">
<title>14</title>
<ellipse fill="#eeeeee" stroke="black" cx="1546.07" cy="-587.75" rx="45.79" ry="32.7"/>
<text xml:space="preserve" text-anchor="middle" x="1546.07" y="-595.47" font-family="Helvetica,Arial,sans-serif" font-size="12.00">0,0,1,2,0,</text>
<text xml:space="preserve" text-anchor="middle" x="1546.07" y="-582.72" font-family="Helvetica,Arial,sans-serif" font-size="12.00">0,0,0,0,2,</text>
<text xml:space="preserve" text-anchor="middle" x="1546.07" y="-569.97" font-family="Helvetica,Arial,sans-serif" font-size="12.00">1</text>
</g>
<!-- 10&#45;&gt;14 -->
<g id="edge16" class="edge">
<title>10&#45;&gt;14</title>
<path fill="none" stroke="#26837c" d="M1276.97,-569.29C1332.21,-558.58 1435.55,-557.94 1496.53,-567.38"/>
<polygon fill="#26837c" stroke="#26837c" points="1495.83,-570.81 1506.28,-569.07 1497.02,-563.91 1495.83,-570.81"/>
<text xml:space="preserve" text-anchor="middle" x="1369.02" y="-549.35" font-family="Helvetica,Arial,sans-serif" font-size="12.00" fill="#26837c">7.00e&#45;01</text>
</g>
<!-- 15 -->
<g id="node16" class="node">
<title>15</title>
<ellipse fill="#eeeeee" stroke="black" cx="1546.07" cy="-450.75" rx="45.79" ry="32.7"/>
<text xml:space="preserve" text-anchor="middle" x="1546.07" y="-458.47" font-family="Helvetica,Arial,sans-serif" font-size="12.00">0,2,0,0,0,</text>
<text xml:space="preserve" text-anchor="middle" x="1546.07" y="-445.72" font-family="Helvetica,Arial,sans-serif" font-size="12.00">0,1,0,0,2,</text>
<text xml:space="preserve" text-anchor="middle" x="1546.07" y="-432.97" font-family="Helvetica,Arial,sans-serif" font-size="12.00">1</text>
</g>
<!-- 11&#45;&gt;15 -->
<g id="edge17" class="edge">
<title>11&#45;&gt;15</title>
<path fill="none" stroke="#288096" d="M1276.97,-432.29C1332.21,-421.58 1435.55,-420.94 1496.53,-430.38"/>
<polygon fill="#288096" stroke="#288096" points="1495.83,-433.81 1506.28,-432.07 1497.02,-426.91 1495.83,-433.81"/>
<text xml:space="preserve" text-anchor="middle" x="1369.02" y="-412.35" font-family="Helvetica,Arial,sans-serif" font-size="12.00" fill="#288096">7.00e&#45;01</text>
</g>
<!-- 12&#45;&gt;7 -->
<g id="edge18" class="edge">
<title>12&#45;&gt;7</title>
<path fill="none" stroke="#2e74d7" d="M1200.2,-58.17C1145.05,-68.91 1041.72,-69.57 980.65,-60.15"/>
<polygon fill="#2e74d7" stroke="#2e74d7" points="981.34,-56.72 970.89,-58.46 980.14,-63.62 981.34,-56.72"/>
<text xml:space="preserve" text-anchor="middle" x="1059.47" y="-55.35" font-family="Helvetica,Arial,sans-serif" font-size="12.00" fill="#2e74d7">1.70e+00</text>
</g>
<!-- 13&#45;&gt;9 -->
<g id="edge19" class="edge">
<title>13&#45;&gt;9</title>
<path fill="none" stroke="#b731e7" d="M1507.77,-195.17C1452.62,-205.91 1349.29,-206.57 1288.22,-197.15"/>
<polygon fill="#b731e7" stroke="#b731e7" points="1288.91,-193.72 1278.46,-195.46 1287.71,-200.62 1288.91,-193.72"/>
<text xml:space="preserve" text-anchor="middle" x="1367.04" y="-192.35" font-family="Helvetica,Arial,sans-serif" font-size="12.00" fill="#b731e7">1.70e+00</text>
</g>
<!-- 14&#45;&gt;10 -->
<g id="edge20" class="edge">
<title>14&#45;&gt;10</title>
<path fill="none" stroke="#d02ba8" d="M1507.77,-606.17C1452.62,-616.91 1349.29,-617.57 1288.22,-608.15"/>
<polygon fill="#d02ba8" stroke="#d02ba8" points="1288.91,-604.72 1278.46,-606.46 1287.71,-611.62 1288.91,-604.72"/>
<text xml:space="preserve" text-anchor="middle" x="1367.04" y="-603.35" font-family="Helvetica,Arial,sans-serif" font-size="12.00" fill="#d02ba8">1.70e+00</text>
</g>
<!-- 15&#45;&gt;11 -->
<g id="edge21" class="edge">
<title>15&#45;&gt;11</title>
<path fill="none" stroke="#e02659" d="M1507.77,-469.17C1452.62,-479.91 1349.29,-480.57 1288.22,-471.15"/>
<polygon fill="#e02659" stroke="#e02659" points="1288.91,-467.72 1278.46,-469.46 1287.71,-474.62 1288.91,-467.72"/>
<text xml:space="preserve" text-anchor="middle" x="1367.04" y="-466.35" font-family="Helvetica,Arial,sans-serif" font-size="12.00" fill="#e02659">1.70e+00</text>
</g>
</g>
</svg>
