<?xml version="1.0" encoding="UTF-8" standalone="no"?>
<!DOCTYPE svg PUBLIC "-//W3C//DTD SVG 1.1//EN"
 "http://www.w3.org/Graphics/SVG/1.1/DTD/svg11.dtd">
<!-- Generated by graphviz version 8.1.0 (0)
 -->
<!-- Title: G Pages: 1 -->
<svg width="432pt" height="194pt"
 viewBox="0.00 0.00 432.00 194.25" xmlns="http://www.w3.org/2000/svg" xmlns:xlink="http://www.w3.org/1999/xlink">
<g id="graph0" class="graph" transform="scale(0.358394 0.358394) rotate(0) translate(36 506)">
<title>G</title>
<polygon fill="white" stroke="none" points="-36,36 -36,-506 1169.38,-506 1169.38,36 -36,36"/>
<!-- Absorb -->
<g id="node1" class="node">
<title>Absorb</title>
<ellipse fill="white" stroke="lightgrey" cx="1095.19" cy="-249" rx="38.18" ry="18"/>
<text text-anchor="middle" x="1095.19" y="-243.2" font-family="Helvetica,Arial,sans-serif" font-size="14.00">Absorb</text>
</g>
<!-- IPV -->
<g id="node2" class="node">
<title>IPV</title>
<ellipse fill="white" stroke="lightgrey" cx="27" cy="-423" rx="27" ry="18"/>
<text text-anchor="middle" x="27" y="-417.2" font-family="Helvetica,Arial,sans-serif" font-size="14.00">IPV</text>
</g>
<!-- 1 -->
<g id="node3" class="node">
<title>1</title>
<ellipse fill="white" stroke="black" cx="170.71" cy="-423" rx="37.21" ry="18"/>
<text text-anchor="middle" x="170.71" y="-417.2" font-family="Helvetica,Arial,sans-serif" font-size="14.00">2,2,2,0</text>
</g>
<!-- IPV&#45;&gt;1 -->
<g id="edge1" class="edge">
<title>IPV&#45;&gt;1</title>
<path fill="none" stroke="#d8a6d7" d="M54.32,-423C73.38,-423 99.65,-423 122.32,-423"/>
<polygon fill="#d8a6d7" stroke="#d8a6d7" points="122.11,-426.5 132.11,-423 122.11,-419.5 122.11,-426.5"/>
<text text-anchor="middle" x="93.75" y="-424.7" font-family="Helvetica,Arial,sans-serif" font-size="14.00" fill="#d8a6d7">1</text>
</g>
<!-- 1&#45;&gt;Absorb -->
<g id="edge26" class="edge">
<title>1&#45;&gt;Absorb</title>
<path fill="none" stroke="#5267d4" d="M201.87,-433.21C232.24,-442.58 280.64,-455 323.63,-455 323.63,-455 323.63,-455 941.3,-455 1028.57,-455 1071.82,-334.32 1087.31,-277.7"/>
<polygon fill="#5267d4" stroke="#5267d4" points="1090.89,-278.84 1090.04,-268.28 1084.12,-277.07 1090.89,-278.84"/>
<text text-anchor="middle" x="632.46" y="-456.7" font-family="Helvetica,Arial,sans-serif" font-size="14.00" fill="#5267d4">1</text>
</g>
<!-- 2 -->
<g id="node4" class="node">
<title>2</title>
<ellipse fill="white" stroke="black" cx="324.63" cy="-249" rx="37.21" ry="18"/>
<text text-anchor="middle" x="324.63" y="-243.2" font-family="Helvetica,Arial,sans-serif" font-size="14.00">2,2,1,0</text>
</g>
<!-- 1&#45;&gt;2 -->
<g id="edge2" class="edge">
<title>1&#45;&gt;2</title>
<path fill="none" stroke="#a6644e" d="M186.28,-406.32C213.16,-375.53 270.68,-309.64 302.09,-273.67"/>
<polygon fill="#a6644e" stroke="#a6644e" points="305.16,-276.47 309.11,-266.63 299.89,-271.86 305.16,-276.47"/>
<text text-anchor="middle" x="247.67" y="-337.7" font-family="Helvetica,Arial,sans-serif" font-size="14.00" fill="#a6644e">5</text>
</g>
<!-- 3 -->
<g id="node5" class="node">
<title>3</title>
<ellipse fill="white" stroke="black" cx="478.55" cy="-249" rx="37.21" ry="18"/>
<text text-anchor="middle" x="478.55" y="-243.2" font-family="Helvetica,Arial,sans-serif" font-size="14.00">1,2,1,0</text>
</g>
<!-- 2&#45;&gt;3 -->
<g id="edge3" class="edge">
<title>2&#45;&gt;3</title>
<path fill="none" stroke="#f58605" d="M362.02,-249C382.44,-249 408.16,-249 430.15,-249"/>
<polygon fill="#f58605" stroke="#f58605" points="429.93,-252.5 439.93,-249 429.93,-245.5 429.93,-252.5"/>
<text text-anchor="middle" x="401.59" y="-250.7" font-family="Helvetica,Arial,sans-serif" font-size="14.00" fill="#f58605">1</text>
</g>
<!-- 4 -->
<g id="node6" class="node">
<title>4</title>
<ellipse fill="white" stroke="black" cx="478.55" cy="-71" rx="37.21" ry="18"/>
<text text-anchor="middle" x="478.55" y="-65.2" font-family="Helvetica,Arial,sans-serif" font-size="14.00">2,1,1,0</text>
</g>
<!-- 2&#45;&gt;4 -->
<g id="edge4" class="edge">
<title>2&#45;&gt;4</title>
<path fill="none" stroke="#50c949" d="M339.92,-232.25C366.73,-200.85 424.67,-132.95 456.15,-96.07"/>
<polygon fill="#50c949" stroke="#50c949" points="459.35,-98.71 463.18,-88.83 454.03,-94.17 459.35,-98.71"/>
<text text-anchor="middle" x="401.59" y="-161.7" font-family="Helvetica,Arial,sans-serif" font-size="14.00" fill="#50c949">1</text>
</g>
<!-- 5 -->
<g id="node7" class="node">
<title>5</title>
<ellipse fill="white" stroke="black" cx="478.55" cy="-317" rx="37.21" ry="18"/>
<text text-anchor="middle" x="478.55" y="-311.2" font-family="Helvetica,Arial,sans-serif" font-size="14.00">2,2,1,1</text>
</g>
<!-- 2&#45;&gt;5 -->
<g id="edge5" class="edge">
<title>2&#45;&gt;5</title>
<path fill="none" stroke="#dacacc" d="M352.79,-261.16C377.23,-272.1 413.37,-288.27 440.47,-300.4"/>
<polygon fill="#dacacc" stroke="#dacacc" points="438.81,-303.94 449.37,-304.83 441.67,-297.55 438.81,-303.94"/>
<text text-anchor="middle" x="401.59" y="-284.7" font-family="Helvetica,Arial,sans-serif" font-size="14.00" fill="#dacacc">1</text>
</g>
<!-- 6 -->
<g id="node8" class="node">
<title>6</title>
<ellipse fill="white" stroke="black" cx="478.55" cy="-158" rx="37.21" ry="18"/>
<text text-anchor="middle" x="478.55" y="-152.2" font-family="Helvetica,Arial,sans-serif" font-size="14.00">2,2,0,0</text>
</g>
<!-- 2&#45;&gt;6 -->
<g id="edge6" class="edge">
<title>2&#45;&gt;6</title>
<path fill="none" stroke="#a608d4" d="M349.03,-234.98C374.68,-219.62 416.01,-194.86 444.85,-177.58"/>
<polygon fill="#a608d4" stroke="#a608d4" points="446.33,-180.18 453.12,-172.04 442.74,-174.17 446.33,-180.18"/>
<text text-anchor="middle" x="401.59" y="-205.7" font-family="Helvetica,Arial,sans-serif" font-size="14.00" fill="#a608d4">5</text>
</g>
<!-- 3&#45;&gt;Absorb -->
<g id="edge27" class="edge">
<title>3&#45;&gt;Absorb</title>
<path fill="none" stroke="#c13160" d="M506.01,-261.6C519.4,-267.37 536.11,-273.66 551.76,-277 644.36,-296.79 884.45,-312.54 977.51,-295 1005.9,-289.65 1036.21,-277.49 1058.82,-267.01"/>
<polygon fill="#c13160" stroke="#c13160" points="1060.1,-269.8 1067.63,-262.35 1057.09,-263.48 1060.1,-269.8"/>
<text text-anchor="middle" x="786.38" y="-304.7" font-family="Helvetica,Arial,sans-serif" font-size="14.00" fill="#c13160">1</text>
</g>
<!-- 9 -->
<g id="node11" class="node">
<title>9</title>
<ellipse fill="white" stroke="black" cx="632.46" cy="-147" rx="37.21" ry="18"/>
<text text-anchor="middle" x="632.46" y="-141.2" font-family="Helvetica,Arial,sans-serif" font-size="14.00">1,2,0,0</text>
</g>
<!-- 3&#45;&gt;9 -->
<g id="edge7" class="edge">
<title>3&#45;&gt;9</title>
<path fill="none" stroke="#b04190" d="M503.65,-235.33C519.67,-226.04 541.03,-213.26 559.26,-201 574.14,-190.99 590.16,-179.13 603.32,-169.07"/>
<polygon fill="#b04190" stroke="#b04190" points="605.14,-171.32 610.93,-162.44 600.87,-165.77 605.14,-171.32"/>
<text text-anchor="middle" x="555.51" y="-207.7" font-family="Helvetica,Arial,sans-serif" font-size="14.00" fill="#b04190">5</text>
</g>
<!-- 4&#45;&gt;Absorb -->
<g id="edge28" class="edge">
<title>4&#45;&gt;Absorb</title>
<path fill="none" stroke="#6a29b2" d="M498.37,-55.59C525.84,-34.71 579.35,0 631.46,0 631.46,0 631.46,0 941.3,0 1043.47,0 1079.51,-154.12 1090.24,-219.86"/>
<polygon fill="#6a29b2" stroke="#6a29b2" points="1086.93,-220.34 1091.91,-229.69 1093.84,-219.27 1086.93,-220.34"/>
<text text-anchor="middle" x="786.38" y="-1.7" font-family="Helvetica,Arial,sans-serif" font-size="14.00" fill="#6a29b2">1</text>
</g>
<!-- 10 -->
<g id="node12" class="node">
<title>10</title>
<ellipse fill="white" stroke="black" cx="632.46" cy="-82" rx="37.21" ry="18"/>
<text text-anchor="middle" x="632.46" y="-76.2" font-family="Helvetica,Arial,sans-serif" font-size="14.00">2,1,0,0</text>
</g>
<!-- 4&#45;&gt;10 -->
<g id="edge8" class="edge">
<title>4&#45;&gt;10</title>
<path fill="none" stroke="#3af0b4" d="M516.09,-70.5C529.67,-70.57 545.18,-70.94 559.26,-72 567.86,-72.65 577.01,-73.66 585.8,-74.8"/>
<polygon fill="#3af0b4" stroke="#3af0b4" points="585.28,-78.4 595.67,-76.28 586.23,-71.46 585.28,-78.4"/>
<text text-anchor="middle" x="555.51" y="-73.7" font-family="Helvetica,Arial,sans-serif" font-size="14.00" fill="#3af0b4">5</text>
</g>
<!-- 7 -->
<g id="node9" class="node">
<title>7</title>
<ellipse fill="white" stroke="black" cx="632.46" cy="-337" rx="37.21" ry="18"/>
<text text-anchor="middle" x="632.46" y="-331.2" font-family="Helvetica,Arial,sans-serif" font-size="14.00">1,2,1,1</text>
</g>
<!-- 5&#45;&gt;7 -->
<g id="edge9" class="edge">
<title>5&#45;&gt;7</title>
<path fill="none" stroke="#7e965a" d="M514.78,-321.64C535.8,-324.41 562.72,-327.95 585.41,-330.94"/>
<polygon fill="#7e965a" stroke="#7e965a" points="584.79,-334.52 595.16,-332.35 585.7,-327.58 584.79,-334.52"/>
<text text-anchor="middle" x="555.51" y="-328.7" font-family="Helvetica,Arial,sans-serif" font-size="14.00" fill="#7e965a">1</text>
</g>
<!-- 8 -->
<g id="node10" class="node">
<title>8</title>
<ellipse fill="white" stroke="black" cx="632.46" cy="-391" rx="37.21" ry="18"/>
<text text-anchor="middle" x="632.46" y="-385.2" font-family="Helvetica,Arial,sans-serif" font-size="14.00">2,1,1,1</text>
</g>
<!-- 5&#45;&gt;8 -->
<g id="edge10" class="edge">
<title>5&#45;&gt;8</title>
<path fill="none" stroke="#0da244" d="M505.66,-329.72C530.52,-341.83 568.13,-360.15 595.75,-373.6"/>
<polygon fill="#0da244" stroke="#0da244" points="593.91,-377.09 604.44,-378.32 596.98,-370.8 593.91,-377.09"/>
<text text-anchor="middle" x="555.51" y="-355.7" font-family="Helvetica,Arial,sans-serif" font-size="14.00" fill="#0da244">1</text>
</g>
<!-- 11 -->
<g id="node13" class="node">
<title>11</title>
<ellipse fill="white" stroke="black" cx="632.46" cy="-223" rx="37.21" ry="18"/>
<text text-anchor="middle" x="632.46" y="-217.2" font-family="Helvetica,Arial,sans-serif" font-size="14.00">2,2,0,1</text>
</g>
<!-- 5&#45;&gt;11 -->
<g id="edge11" class="edge">
<title>5&#45;&gt;11</title>
<path fill="none" stroke="#b67fed" d="M502.29,-302.93C528.02,-287.01 570.12,-260.95 599.23,-242.94"/>
<polygon fill="#b67fed" stroke="#b67fed" points="600.9,-245.41 607.57,-237.17 597.22,-239.45 600.9,-245.41"/>
<text text-anchor="middle" x="555.51" y="-271.7" font-family="Helvetica,Arial,sans-serif" font-size="14.00" fill="#b67fed">5</text>
</g>
<!-- 6&#45;&gt;9 -->
<g id="edge12" class="edge">
<title>6&#45;&gt;9</title>
<path fill="none" stroke="#7b477e" d="M514.34,-152.28C526.18,-150.58 539.51,-148.92 551.76,-148 562.2,-147.21 573.44,-146.81 584.09,-146.62"/>
<polygon fill="#7b477e" stroke="#7b477e" points="583.95,-150.11 593.92,-146.5 583.88,-143.11 583.95,-150.11"/>
<text text-anchor="middle" x="555.51" y="-149.7" font-family="Helvetica,Arial,sans-serif" font-size="14.00" fill="#7b477e">1</text>
</g>
<!-- 6&#45;&gt;10 -->
<g id="edge13" class="edge">
<title>6&#45;&gt;10</title>
<path fill="none" stroke="#9e1743" d="M505.32,-145.11C530.2,-132.66 568.08,-113.71 595.84,-99.82"/>
<polygon fill="#9e1743" stroke="#9e1743" points="597.19,-102.56 604.57,-94.96 594.06,-96.3 597.19,-102.56"/>
<text text-anchor="middle" x="555.51" y="-121.7" font-family="Helvetica,Arial,sans-serif" font-size="14.00" fill="#9e1743">1</text>
</g>
<!-- 6&#45;&gt;11 -->
<g id="edge14" class="edge">
<title>6&#45;&gt;11</title>
<path fill="none" stroke="#af25ed" d="M510.2,-167.68C525.17,-172.69 543.35,-179.17 559.26,-186 572,-191.47 585.62,-198.21 597.55,-204.42"/>
<polygon fill="#af25ed" stroke="#af25ed" points="595.65,-207.91 606.13,-209.48 598.92,-201.72 595.65,-207.91"/>
<text text-anchor="middle" x="555.51" y="-187.7" font-family="Helvetica,Arial,sans-serif" font-size="14.00" fill="#af25ed">4</text>
</g>
<!-- 7&#45;&gt;Absorb -->
<g id="edge29" class="edge">
<title>7&#45;&gt;Absorb</title>
<path fill="none" stroke="#9e0a17" d="M666.73,-344.52C736.22,-358.5 900.29,-382.4 1021.01,-328 1045.25,-317.08 1065.14,-293.91 1078.04,-275.47"/>
<polygon fill="#9e0a17" stroke="#9e0a17" points="1081.49,-277.61 1084.13,-267.35 1075.67,-273.73 1081.49,-277.61"/>
<text text-anchor="middle" x="863.34" y="-363.7" font-family="Helvetica,Arial,sans-serif" font-size="14.00" fill="#9e0a17">1</text>
</g>
<!-- 13 -->
<g id="node15" class="node">
<title>13</title>
<ellipse fill="white" stroke="black" cx="786.38" cy="-148" rx="37.21" ry="18"/>
<text text-anchor="middle" x="786.38" y="-142.2" font-family="Helvetica,Arial,sans-serif" font-size="14.00">1,2,0,1</text>
</g>
<!-- 7&#45;&gt;13 -->
<g id="edge15" class="edge">
<title>7&#45;&gt;13</title>
<path fill="none" stroke="#e7c0b7" d="M652.95,-321.7C670.53,-307.1 696.16,-283.72 713.17,-259 735.97,-225.88 724.49,-207.74 749.17,-176 751,-173.65 753.07,-171.38 755.27,-169.23"/>
<polygon fill="#e7c0b7" stroke="#e7c0b7" points="756.88,-171.61 762.11,-162.39 752.27,-166.33 756.88,-171.61"/>
<text text-anchor="middle" x="709.42" y="-270.7" font-family="Helvetica,Arial,sans-serif" font-size="14.00" fill="#e7c0b7">5</text>
</g>
<!-- 8&#45;&gt;Absorb -->
<g id="edge30" class="edge">
<title>8&#45;&gt;Absorb</title>
<path fill="none" stroke="#695cd1" d="M669.62,-393.67C733.41,-397.23 869.43,-399.63 977.51,-366 998.2,-359.56 1004.32,-357.81 1021.01,-344 1044.41,-324.63 1064.91,-296.49 1078.21,-275.86"/>
<polygon fill="#695cd1" stroke="#695cd1" points="1081.62,-278.02 1083.97,-267.69 1075.69,-274.29 1081.62,-278.02"/>
<text text-anchor="middle" x="863.34" y="-391.7" font-family="Helvetica,Arial,sans-serif" font-size="14.00" fill="#695cd1">1</text>
</g>
<!-- 14 -->
<g id="node16" class="node">
<title>14</title>
<ellipse fill="white" stroke="black" cx="786.38" cy="-203" rx="37.21" ry="18"/>
<text text-anchor="middle" x="786.38" y="-197.2" font-family="Helvetica,Arial,sans-serif" font-size="14.00">2,1,0,1</text>
</g>
<!-- 8&#45;&gt;14 -->
<g id="edge16" class="edge">
<title>8&#45;&gt;14</title>
<path fill="none" stroke="#a0ff1a" d="M662.15,-379.9C679.18,-371.97 699.96,-359.73 713.17,-343 745.85,-301.64 718.58,-272.92 749.17,-230 750.58,-228.03 752.17,-226.14 753.89,-224.34"/>
<polygon fill="#a0ff1a" stroke="#a0ff1a" points="755.88,-227.36 760.98,-218.08 751.2,-222.15 755.88,-227.36"/>
<text text-anchor="middle" x="709.42" y="-352.7" font-family="Helvetica,Arial,sans-serif" font-size="14.00" fill="#a0ff1a">5</text>
</g>
<!-- 12 -->
<g id="node14" class="node">
<title>12</title>
<ellipse fill="white" stroke="black" cx="786.38" cy="-61" rx="37.21" ry="18"/>
<text text-anchor="middle" x="786.38" y="-55.2" font-family="Helvetica,Arial,sans-serif" font-size="14.00">1,1,0,0</text>
</g>
<!-- 9&#45;&gt;12 -->
<g id="edge17" class="edge">
<title>9&#45;&gt;12</title>
<path fill="none" stroke="#72c4b8" d="M649.24,-130.48C670.22,-108.54 704.78,-72.46 705.67,-72 715.57,-66.96 727.01,-63.99 738.08,-62.29"/>
<polygon fill="#72c4b8" stroke="#72c4b8" points="738.44,-65.66 747.95,-60.99 737.6,-58.71 738.44,-65.66"/>
<text text-anchor="middle" x="709.42" y="-73.7" font-family="Helvetica,Arial,sans-serif" font-size="14.00" fill="#72c4b8">1</text>
</g>
<!-- 9&#45;&gt;13 -->
<g id="edge18" class="edge">
<title>9&#45;&gt;13</title>
<path fill="none" stroke="#0f65c7" d="M669.85,-147.24C690.28,-147.37 716,-147.54 737.99,-147.69"/>
<polygon fill="#0f65c7" stroke="#0f65c7" points="737.74,-151.19 747.76,-147.76 737.79,-144.19 737.74,-151.19"/>
<text text-anchor="middle" x="709.42" y="-149.7" font-family="Helvetica,Arial,sans-serif" font-size="14.00" fill="#0f65c7">2</text>
</g>
<!-- 10&#45;&gt;12 -->
<g id="edge19" class="edge">
<title>10&#45;&gt;12</title>
<path fill="none" stroke="#57a727" d="M650.92,-66.08C664.67,-54.67 684.92,-40.27 705.67,-34 721.92,-29.09 739.84,-34.2 754.57,-41.24"/>
<polygon fill="#57a727" stroke="#57a727" points="752.72,-44.75 763.19,-46.33 755.99,-38.56 752.72,-44.75"/>
<text text-anchor="middle" x="709.42" y="-35.7" font-family="Helvetica,Arial,sans-serif" font-size="14.00" fill="#57a727">1</text>
</g>
<!-- 10&#45;&gt;14 -->
<g id="edge20" class="edge">
<title>10&#45;&gt;14</title>
<path fill="none" stroke="#6d2775" d="M659.86,-94.37C676.22,-102.78 697.11,-114.92 713.17,-129 732.7,-146.11 730.76,-156.7 749.17,-175 751.34,-177.15 753.67,-179.29 756.07,-181.37"/>
<polygon fill="#6d2775" stroke="#6d2775" points="753.39,-184.52 763.34,-188.15 757.82,-179.1 753.39,-184.52"/>
<text text-anchor="middle" x="709.42" y="-130.7" font-family="Helvetica,Arial,sans-serif" font-size="14.00" fill="#6d2775">2</text>
</g>
<!-- 11&#45;&gt;13 -->
<g id="edge21" class="edge">
<title>11&#45;&gt;13</title>
<path fill="none" stroke="#edd865" d="M659.24,-210.28C684.12,-197.99 722,-179.29 749.76,-165.59"/>
<polygon fill="#edd865" stroke="#edd865" points="751.07,-168.35 758.49,-160.79 747.97,-162.07 751.07,-168.35"/>
<text text-anchor="middle" x="709.42" y="-187.7" font-family="Helvetica,Arial,sans-serif" font-size="14.00" fill="#edd865">1</text>
</g>
<!-- 11&#45;&gt;14 -->
<g id="edge22" class="edge">
<title>11&#45;&gt;14</title>
<path fill="none" stroke="#5f090e" d="M668.7,-218.36C689.72,-215.59 716.64,-212.05 739.32,-209.06"/>
<polygon fill="#5f090e" stroke="#5f090e" points="739.62,-212.42 749.08,-207.65 738.7,-205.48 739.62,-212.42"/>
<text text-anchor="middle" x="709.42" y="-214.7" font-family="Helvetica,Arial,sans-serif" font-size="14.00" fill="#5f090e">1</text>
</g>
<!-- 15 -->
<g id="node17" class="node">
<title>15</title>
<ellipse fill="white" stroke="black" cx="786.38" cy="-257" rx="37.21" ry="18"/>
<text text-anchor="middle" x="786.38" y="-251.2" font-family="Helvetica,Arial,sans-serif" font-size="14.00">2,2,0,2</text>
</g>
<!-- 11&#45;&gt;15 -->
<g id="edge23" class="edge">
<title>11&#45;&gt;15</title>
<path fill="none" stroke="#bfc9db" d="M666.8,-230.46C688.77,-235.38 717.76,-241.87 741.58,-247.2"/>
<polygon fill="#bfc9db" stroke="#bfc9db" points="740.6,-250.79 751.12,-249.56 742.13,-243.96 740.6,-250.79"/>
<text text-anchor="middle" x="709.42" y="-241.7" font-family="Helvetica,Arial,sans-serif" font-size="14.00" fill="#bfc9db">4</text>
</g>
<!-- 12&#45;&gt;Absorb -->
<g id="edge31" class="edge">
<title>12&#45;&gt;Absorb</title>
<path fill="none" stroke="#8df66b" d="M822.64,-65.39C862.64,-71.64 928.67,-85.87 977.51,-116 1021.62,-143.22 1058.28,-192.34 1078.14,-222.66"/>
<polygon fill="#8df66b" stroke="#8df66b" points="1075.65,-224.26 1083.99,-230.8 1081.54,-220.49 1075.65,-224.26"/>
<text text-anchor="middle" x="940.3" y="-117.7" font-family="Helvetica,Arial,sans-serif" font-size="14.00" fill="#8df66b">1</text>
</g>
<!-- 13&#45;&gt;Absorb -->
<g id="edge32" class="edge">
<title>13&#45;&gt;Absorb</title>
<path fill="none" stroke="#5882b2" d="M820.89,-140.94C859.85,-134.27 925.46,-127.86 977.51,-147 1018.17,-161.95 1053.84,-198.45 1074.72,-223.47"/>
<polygon fill="#5882b2" stroke="#5882b2" points="1072.45,-225.23 1081.47,-230.79 1077.88,-220.82 1072.45,-225.23"/>
<text text-anchor="middle" x="940.3" y="-148.7" font-family="Helvetica,Arial,sans-serif" font-size="14.00" fill="#5882b2">1</text>
</g>
<!-- 14&#45;&gt;Absorb -->
<g id="edge33" class="edge">
<title>14&#45;&gt;Absorb</title>
<path fill="none" stroke="#a01366" d="M814.64,-190.98C852.02,-176.19 920.97,-155.03 977.51,-172 1012.4,-182.47 1046.48,-207.13 1068.71,-225.74"/>
<polygon fill="#a01366" stroke="#a01366" points="1066.05,-228.93 1075.92,-232.79 1070.61,-223.61 1066.05,-228.93"/>
<text text-anchor="middle" x="940.3" y="-173.7" font-family="Helvetica,Arial,sans-serif" font-size="14.00" fill="#a01366">1</text>
</g>
<!-- 16 -->
<g id="node18" class="node">
<title>16</title>
<ellipse fill="white" stroke="black" cx="940.3" cy="-268" rx="37.21" ry="18"/>
<text text-anchor="middle" x="940.3" y="-262.2" font-family="Helvetica,Arial,sans-serif" font-size="14.00">1,2,0,2</text>
</g>
<!-- 15&#45;&gt;16 -->
<g id="edge24" class="edge">
<title>15&#45;&gt;16</title>
<path fill="none" stroke="#eaebcb" d="M823.39,-259.61C843.95,-261.1 869.98,-262.98 892.16,-264.59"/>
<polygon fill="#eaebcb" stroke="#eaebcb" points="891.8,-268.14 902.03,-265.37 892.31,-261.16 891.8,-268.14"/>
<text text-anchor="middle" x="863.34" y="-264.7" font-family="Helvetica,Arial,sans-serif" font-size="14.00" fill="#eaebcb">1</text>
</g>
<!-- 17 -->
<g id="node19" class="node">
<title>17</title>
<ellipse fill="white" stroke="black" cx="940.3" cy="-214" rx="37.21" ry="18"/>
<text text-anchor="middle" x="940.3" y="-208.2" font-family="Helvetica,Arial,sans-serif" font-size="14.00">2,1,0,2</text>
</g>
<!-- 15&#45;&gt;17 -->
<g id="edge25" class="edge">
<title>15&#45;&gt;17</title>
<path fill="none" stroke="#28ad09" d="M819.23,-247.99C841.82,-241.59 872.36,-232.95 896.99,-225.97"/>
<polygon fill="#28ad09" stroke="#28ad09" points="897.83,-229.09 906.5,-223 895.92,-222.36 897.83,-229.09"/>
<text text-anchor="middle" x="863.34" y="-237.7" font-family="Helvetica,Arial,sans-serif" font-size="14.00" fill="#28ad09">1</text>
</g>
<!-- 16&#45;&gt;Absorb -->
<g id="edge34" class="edge">
<title>16&#45;&gt;Absorb</title>
<path fill="none" stroke="#3652d9" d="M976.76,-263.59C997.69,-260.99 1024.43,-257.67 1047.1,-254.85"/>
<polygon fill="#3652d9" stroke="#3652d9" points="1047.37,-258.22 1056.86,-253.51 1046.51,-251.27 1047.37,-258.22"/>
<text text-anchor="middle" x="1017.26" y="-260.7" font-family="Helvetica,Arial,sans-serif" font-size="14.00" fill="#3652d9">1</text>
</g>
<!-- 17&#45;&gt;Absorb -->
<g id="edge35" class="edge">
<title>17&#45;&gt;Absorb</title>
<path fill="none" stroke="#e44c60" d="M974.48,-221.59C996.49,-226.63 1025.63,-233.31 1049.66,-238.8"/>
<polygon fill="#e44c60" stroke="#e44c60" points="1048.76,-242.42 1059.29,-241.24 1050.32,-235.6 1048.76,-242.42"/>
<text text-anchor="middle" x="1017.26" y="-233.7" font-family="Helvetica,Arial,sans-serif" font-size="14.00" fill="#e44c60">1</text>
</g>
</g>
</svg>
