<?xml version="1.0" encoding="UTF-8" standalone="no"?>
<!DOCTYPE svg PUBLIC "-//W3C//DTD SVG 1.1//EN"
 "http://www.w3.org/Graphics/SVG/1.1/DTD/svg11.dtd">
<!-- Generated by graphviz version 13.1.2 (0)
 -->
<!-- Pages: 1 -->
<svg width="504pt" height="130pt"
 viewBox="0.00 0.00 504.00 130.00" xmlns="http://www.w3.org/2000/svg" xmlns:xlink="http://www.w3.org/1999/xlink">
<g id="graph0" class="graph" transform="scale(0.753887 0.753887) rotate(0) translate(36 136)">
<polygon fill="#ffffff" stroke="none" points="-36,36 -36,-136 632.54,-136 632.54,36 -36,36"/>
<!-- 0 -->
<g id="node1" class="node">
<title>0</title>
<ellipse fill="#bbbbbb" stroke="black" cx="27" cy="-18" rx="27" ry="18"/>
<text xml:space="preserve" text-anchor="middle" x="27" y="-12.97" font-family="Helvetica,Arial,sans-serif" font-size="12.00">S</text>
</g>
<!-- 1 -->
<g id="node2" class="node">
<title>1</title>
<ellipse fill="#eeeeee" stroke="black" cx="157.82" cy="-18" rx="31.82" ry="18"/>
<text xml:space="preserve" text-anchor="middle" x="157.82" y="-12.97" font-family="Helvetica,Arial,sans-serif" font-size="12.00">4,0,0,0</text>
</g>
<!-- 0&#45;&gt;1 -->
<g id="edge1" class="edge">
<title>0&#45;&gt;1</title>
<path fill="none" stroke="#b41c46" d="M54.38,-18C71.73,-18 94.82,-18 114.68,-18"/>
<polygon fill="#b41c46" stroke="#b41c46" points="114.43,-21.5 124.43,-18 114.43,-14.5 114.43,-21.5"/>
<text xml:space="preserve" text-anchor="middle" x="78.35" y="-6.6" font-family="Helvetica,Arial,sans-serif" font-size="12.00" fill="#b41c46">1.00</text>
</g>
<!-- 2 -->
<g id="node3" class="node">
<title>2</title>
<ellipse fill="#eeeeee" stroke="black" cx="293.45" cy="-18" rx="31.82" ry="18"/>
<text xml:space="preserve" text-anchor="middle" x="293.45" y="-12.97" font-family="Helvetica,Arial,sans-serif" font-size="12.00">2,1,0,0</text>
</g>
<!-- 1&#45;&gt;2 -->
<g id="edge2" class="edge">
<title>1&#45;&gt;2</title>
<path fill="none" stroke="#85511a" d="M189.81,-18C207.65,-18 230.31,-18 249.81,-18"/>
<polygon fill="#85511a" stroke="#85511a" points="249.65,-21.5 259.65,-18 249.65,-14.5 249.65,-21.5"/>
<text xml:space="preserve" text-anchor="middle" x="250.63" y="-12.97" font-family="Helvetica,Arial,sans-serif" font-size="12.00" fill="#85511a">1.50e+00</text>
</g>
<!-- 3 -->
<g id="node4" class="node">
<title>3</title>
<ellipse fill="#eeeeee" stroke="black" cx="429.08" cy="-82" rx="31.82" ry="18"/>
<text xml:space="preserve" text-anchor="middle" x="429.08" y="-76.97" font-family="Helvetica,Arial,sans-serif" font-size="12.00">1,0,1,0</text>
</g>
<!-- 2&#45;&gt;3 -->
<g id="edge3" class="edge">
<title>2&#45;&gt;3</title>
<path fill="none" stroke="#685e1a" d="M318.34,-29.44C339.3,-39.48 370.04,-54.2 393.66,-65.51"/>
<polygon fill="#685e1a" stroke="#685e1a" points="392.05,-68.62 402.58,-69.79 395.08,-62.31 392.05,-68.62"/>
<text xml:space="preserve" text-anchor="middle" x="349.61" y="-38.59" font-family="Helvetica,Arial,sans-serif" font-size="12.00" fill="#685e1a">1.00</text>
</g>
<!-- 4 -->
<g id="node5" class="node">
<title>4</title>
<ellipse fill="#bbbbbb" stroke="black" cx="564.72" cy="-18" rx="31.82" ry="18"/>
<text xml:space="preserve" text-anchor="middle" x="564.72" y="-12.97" font-family="Helvetica,Arial,sans-serif" font-size="12.00">0,0,0,1</text>
</g>
<!-- 2&#45;&gt;4 -->
<g id="edge4" class="edge">
<title>2&#45;&gt;4</title>
<path fill="none" stroke="#46671a" d="M325.6,-18C373.84,-18 466.7,-18 521.11,-18"/>
<polygon fill="#46671a" stroke="#46671a" points="520.92,-21.5 530.92,-18 520.92,-14.5 520.92,-21.5"/>
<text xml:space="preserve" text-anchor="middle" x="405.45" y="-6.6" font-family="Helvetica,Arial,sans-serif" font-size="12.00" fill="#46671a">5.00e&#45;01</text>
</g>
<!-- 3&#45;&gt;4 -->
<g id="edge5" class="edge">
<title>3&#45;&gt;4</title>
<path fill="none" stroke="#1b6a48" d="M453.98,-70.56C474.94,-60.52 505.68,-45.8 529.29,-34.49"/>
<polygon fill="#1b6a48" stroke="#1b6a48" points="530.71,-37.69 538.22,-30.21 527.69,-31.38 530.71,-37.69"/>
<text xml:space="preserve" text-anchor="middle" x="485.25" y="-38.61" font-family="Helvetica,Arial,sans-serif" font-size="12.00" fill="#1b6a48">1.00</text>
</g>
</g>
</svg>
