<?xml version="1.0" encoding="UTF-8" standalone="no"?>
<!DOCTYPE svg PUBLIC "-//W3C//DTD SVG 1.1//EN"
 "http://www.w3.org/Graphics/SVG/1.1/DTD/svg11.dtd">
<!-- Generated by graphviz version 13.1.2 (0)
 -->
<!-- Pages: 1 -->
<svg width="864pt" height="420pt"
 viewBox="0.00 0.00 864.00 420.00" xmlns="http://www.w3.org/2000/svg" xmlns:xlink="http://www.w3.org/1999/xlink">
<g id="graph0" class="graph" transform="scale(0.568315 0.568315) rotate(0) translate(36 703)">
<polygon fill="#ffffff" stroke="none" points="-36,36 -36,-703 1484.28,-703 1484.28,36 -36,36"/>
<g id="clust1" class="cluster">
<title>cluster_[1 0 0 2 0 0]</title>
<polygon fill="#ffffff" stroke="black" points="406,-8 406,-587 521.43,-587 521.43,-8 406,-8"/>
<text xml:space="preserve" text-anchor="middle" x="463.71" y="-569.7" font-family="Helvetica,Arial,sans-serif" font-size="14.00">[1 0 0 2 0 0]</text>
</g>
<g id="clust2" class="cluster">
<title>cluster_[1 0 0 0 1 0]</title>
<polygon fill="#ffffff" stroke="black" points="865.43,-8 865.43,-659 980.86,-659 980.86,-8 865.43,-8"/>
<text xml:space="preserve" text-anchor="middle" x="923.14" y="-641.7" font-family="Helvetica,Arial,sans-serif" font-size="14.00">[1 0 0 0 1 0]</text>
</g>
<g id="clust3" class="cluster">
<title>cluster_[0 0 1 0 0 0]</title>
<polygon fill="#ffffff" stroke="black" points="1324.86,-8 1324.86,-83 1440.28,-83 1440.28,-8 1324.86,-8"/>
<text xml:space="preserve" text-anchor="middle" x="1382.57" y="-65.7" font-family="Helvetica,Arial,sans-serif" font-size="14.00">[0 0 1 0 0 0]</text>
</g>
<!-- 0 -->
<g id="node1" class="node">
<title>0</title>
<ellipse fill="#bbbbbb" stroke="black" cx="27" cy="-34" rx="27" ry="18"/>
<text xml:space="preserve" text-anchor="middle" x="27" y="-28.98" font-family="Helvetica,Arial,sans-serif" font-size="12.00">S</text>
</g>
<!-- 1 -->
<g id="node2" class="node">
<title>1</title>
<ellipse fill="#424086" fill-opacity="0.501961" stroke="black" cx="463.71" cy="-34" rx="49.71" ry="18"/>
<text xml:space="preserve" text-anchor="middle" x="463.71" y="-28.98" font-family="Helvetica,Arial,sans-serif" font-size="12.00">1,0,0,2,0,0,2</text>
</g>
<!-- 0&#45;&gt;1 -->
<g id="edge1" class="edge">
<title>0&#45;&gt;1</title>
<path fill="none" stroke="#e02659" d="M54.21,-34C122.3,-34 306.13,-34 402.27,-34"/>
<polygon fill="#e02659" stroke="#e02659" points="402.03,-37.5 412.03,-34 402.03,-30.5 402.03,-37.5"/>
<text xml:space="preserve" text-anchor="middle" x="225.89" y="-22.6" font-family="Helvetica,Arial,sans-serif" font-size="12.00" fill="#e02659">1.0</text>
</g>
<!-- 2 -->
<g id="node3" class="node">
<title>2</title>
<ellipse fill="#6ccd5a" fill-opacity="0.501961" stroke="black" cx="923.14" cy="-34" rx="49.71" ry="18"/>
<text xml:space="preserve" text-anchor="middle" x="923.14" y="-28.98" font-family="Helvetica,Arial,sans-serif" font-size="12.00">1,0,0,0,1,0,1</text>
</g>
<!-- 1&#45;&gt;2 -->
<g id="edge2" class="edge">
<title>1&#45;&gt;2</title>
<path fill="none" stroke="#a76723" d="M513.67,-34C597.99,-34 770.37,-34 861.91,-34"/>
<polygon fill="#a76723" stroke="#a76723" points="861.68,-37.5 871.68,-34 861.68,-30.5 861.68,-37.5"/>
<text xml:space="preserve" text-anchor="middle" x="669.85" y="-22.6" font-family="Helvetica,Arial,sans-serif" font-size="12.00" fill="#a76723">2.00e&#45;02</text>
</g>
<!-- 3 -->
<g id="node4" class="node">
<title>3</title>
<ellipse fill="#472a7a" fill-opacity="0.501961" stroke="black" cx="463.71" cy="-106" rx="49.71" ry="18"/>
<text xml:space="preserve" text-anchor="middle" x="463.71" y="-100.97" font-family="Helvetica,Arial,sans-serif" font-size="12.00">1,0,0,2,0,0,3</text>
</g>
<!-- 1&#45;&gt;3 -->
<g id="edge3" class="edge">
<title>1&#45;&gt;3</title>
<path fill="none" stroke="#837623" d="M489.2,-49.75C501.71,-60.49 504.27,-71.23 496.88,-81.97"/>
<polygon fill="#837623" stroke="#837623" points="494.53,-79.35 490.31,-89.07 499.67,-84.1 494.53,-79.35"/>
<text xml:space="preserve" text-anchor="middle" x="477.37" y="-58.49" font-family="Helvetica,Arial,sans-serif" font-size="12.00" fill="#837623">3.56e&#45;01</text>
</g>
<!-- 4 -->
<g id="node5" class="node">
<title>4</title>
<ellipse fill="#bbbbbb" stroke="black" cx="1382.57" cy="-34" rx="49.71" ry="18"/>
<text xml:space="preserve" text-anchor="middle" x="1382.57" y="-28.98" font-family="Helvetica,Arial,sans-serif" font-size="12.00">0,0,1,0,0,0,0</text>
</g>
<!-- 2&#45;&gt;4 -->
<g id="edge4" class="edge">
<title>2&#45;&gt;4</title>
<path fill="none" stroke="#598123" d="M973.09,-34C1057.41,-34 1229.8,-34 1321.34,-34"/>
<polygon fill="#598123" stroke="#598123" points="1321.11,-37.5 1331.11,-34 1321.11,-30.5 1321.11,-37.5"/>
<text xml:space="preserve" text-anchor="middle" x="1129.27" y="-22.6" font-family="Helvetica,Arial,sans-serif" font-size="12.00" fill="#598123">2.00e&#45;02</text>
</g>
<!-- 5 -->
<g id="node6" class="node">
<title>5</title>
<ellipse fill="#23888e" fill-opacity="0.501961" stroke="black" cx="923.14" cy="-106" rx="49.71" ry="18"/>
<text xml:space="preserve" text-anchor="middle" x="923.14" y="-100.97" font-family="Helvetica,Arial,sans-serif" font-size="12.00">1,0,0,0,1,0,2</text>
</g>
<!-- 2&#45;&gt;5 -->
<g id="edge5" class="edge">
<title>2&#45;&gt;5</title>
<path fill="none" stroke="#25855c" d="M948.63,-49.75C961.14,-60.49 963.7,-71.23 956.31,-81.97"/>
<polygon fill="#25855c" stroke="#25855c" points="953.96,-79.35 949.74,-89.07 959.1,-84.1 953.96,-79.35"/>
<text xml:space="preserve" text-anchor="middle" x="936.8" y="-58.49" font-family="Helvetica,Arial,sans-serif" font-size="12.00" fill="#25855c">2.00e&#45;01</text>
</g>
<!-- 3&#45;&gt;1 -->
<g id="edge7" class="edge">
<title>3&#45;&gt;1</title>
<path fill="none" stroke="#288096" d="M438.14,-90.18C425.67,-79.44 423.16,-68.7 430.6,-57.96"/>
<polygon fill="#288096" stroke="#288096" points="432.95,-60.57 437.2,-50.86 427.83,-55.8 432.95,-60.57"/>
<text xml:space="preserve" text-anchor="middle" x="402.8" y="-58.64" font-family="Helvetica,Arial,sans-serif" font-size="12.00" fill="#288096">4.67e&#45;01</text>
</g>
<!-- 3&#45;&gt;5 -->
<g id="edge6" class="edge">
<title>3&#45;&gt;5</title>
<path fill="none" stroke="#26837c" d="M513.67,-106C597.99,-106 770.37,-106 861.91,-106"/>
<polygon fill="#26837c" stroke="#26837c" points="861.68,-109.5 871.68,-106 861.68,-102.5 861.68,-109.5"/>
<text xml:space="preserve" text-anchor="middle" x="669.85" y="-94.6" font-family="Helvetica,Arial,sans-serif" font-size="12.00" fill="#26837c">2.00e&#45;02</text>
</g>
<!-- 6 -->
<g id="node7" class="node">
<title>6</title>
<ellipse fill="#482071" fill-opacity="0.501961" stroke="black" cx="463.71" cy="-178" rx="49.71" ry="18"/>
<text xml:space="preserve" text-anchor="middle" x="463.71" y="-172.97" font-family="Helvetica,Arial,sans-serif" font-size="12.00">1,0,0,2,0,0,4</text>
</g>
<!-- 3&#45;&gt;6 -->
<g id="edge8" class="edge">
<title>3&#45;&gt;6</title>
<path fill="none" stroke="#2e74d7" d="M489.2,-121.75C501.71,-132.49 504.27,-143.23 496.88,-153.97"/>
<polygon fill="#2e74d7" stroke="#2e74d7" points="494.53,-151.35 490.31,-161.07 499.67,-156.1 494.53,-151.35"/>
<text xml:space="preserve" text-anchor="middle" x="477.37" y="-130.49" font-family="Helvetica,Arial,sans-serif" font-size="12.00" fill="#2e74d7">4.67e&#45;01</text>
</g>
<!-- 5&#45;&gt;2 -->
<g id="edge9" class="edge">
<title>5&#45;&gt;2</title>
<path fill="none" stroke="#b731e7" d="M897.57,-90.18C885.1,-79.44 882.59,-68.7 890.03,-57.96"/>
<polygon fill="#b731e7" stroke="#b731e7" points="892.38,-60.57 896.62,-50.86 887.25,-55.8 892.38,-60.57"/>
<text xml:space="preserve" text-anchor="middle" x="862.23" y="-58.64" font-family="Helvetica,Arial,sans-serif" font-size="12.00" fill="#b731e7">3.56e&#45;01</text>
</g>
<!-- 7 -->
<g id="node8" class="node">
<title>7</title>
<ellipse fill="#2c728e" fill-opacity="0.501961" stroke="black" cx="923.14" cy="-178" rx="49.71" ry="18"/>
<text xml:space="preserve" text-anchor="middle" x="923.14" y="-172.97" font-family="Helvetica,Arial,sans-serif" font-size="12.00">1,0,0,0,1,0,3</text>
</g>
<!-- 5&#45;&gt;7 -->
<g id="edge10" class="edge">
<title>5&#45;&gt;7</title>
<path fill="none" stroke="#d02ba8" d="M948.63,-121.75C961.14,-132.49 963.7,-143.23 956.31,-153.97"/>
<polygon fill="#d02ba8" stroke="#d02ba8" points="953.96,-151.35 949.74,-161.07 959.1,-156.1 953.96,-151.35"/>
<text xml:space="preserve" text-anchor="middle" x="936.8" y="-130.49" font-family="Helvetica,Arial,sans-serif" font-size="12.00" fill="#d02ba8">3.56e&#45;01</text>
</g>
<!-- 6&#45;&gt;3 -->
<g id="edge12" class="edge">
<title>6&#45;&gt;3</title>
<path fill="none" stroke="#a76723" d="M438.14,-162.18C425.67,-151.44 423.16,-140.7 430.6,-129.96"/>
<polygon fill="#a76723" stroke="#a76723" points="432.95,-132.57 437.2,-122.86 427.83,-127.8 432.95,-132.57"/>
<text xml:space="preserve" text-anchor="middle" x="402.8" y="-130.64" font-family="Helvetica,Arial,sans-serif" font-size="12.00" fill="#a76723">5.33e&#45;01</text>
</g>
<!-- 6&#45;&gt;7 -->
<g id="edge11" class="edge">
<title>6&#45;&gt;7</title>
<path fill="none" stroke="#e02659" d="M513.67,-178C597.99,-178 770.37,-178 861.91,-178"/>
<polygon fill="#e02659" stroke="#e02659" points="861.68,-181.5 871.68,-178 861.68,-174.5 861.68,-181.5"/>
<text xml:space="preserve" text-anchor="middle" x="669.85" y="-166.6" font-family="Helvetica,Arial,sans-serif" font-size="12.00" fill="#e02659">2.00e&#45;02</text>
</g>
<!-- 8 -->
<g id="node9" class="node">
<title>8</title>
<ellipse fill="#481b6d" fill-opacity="0.501961" stroke="black" cx="463.71" cy="-250" rx="49.71" ry="18"/>
<text xml:space="preserve" text-anchor="middle" x="463.71" y="-244.97" font-family="Helvetica,Arial,sans-serif" font-size="12.00">1,0,0,2,0,0,5</text>
</g>
<!-- 6&#45;&gt;8 -->
<g id="edge13" class="edge">
<title>6&#45;&gt;8</title>
<path fill="none" stroke="#837623" d="M489.2,-193.75C501.71,-204.49 504.27,-215.23 496.88,-225.97"/>
<polygon fill="#837623" stroke="#837623" points="494.53,-223.35 490.31,-233.07 499.67,-228.1 494.53,-223.35"/>
<text xml:space="preserve" text-anchor="middle" x="477.37" y="-202.49" font-family="Helvetica,Arial,sans-serif" font-size="12.00" fill="#837623">5.33e&#45;01</text>
</g>
<!-- 7&#45;&gt;5 -->
<g id="edge14" class="edge">
<title>7&#45;&gt;5</title>
<path fill="none" stroke="#598123" d="M897.57,-162.18C885.1,-151.44 882.59,-140.7 890.03,-129.96"/>
<polygon fill="#598123" stroke="#598123" points="892.38,-132.57 896.62,-122.86 887.25,-127.8 892.38,-132.57"/>
<text xml:space="preserve" text-anchor="middle" x="862.23" y="-130.64" font-family="Helvetica,Arial,sans-serif" font-size="12.00" fill="#598123">4.67e&#45;01</text>
</g>
<!-- 9 -->
<g id="node10" class="node">
<title>9</title>
<ellipse fill="#306a8e" fill-opacity="0.501961" stroke="black" cx="923.14" cy="-250" rx="49.71" ry="18"/>
<text xml:space="preserve" text-anchor="middle" x="923.14" y="-244.97" font-family="Helvetica,Arial,sans-serif" font-size="12.00">1,0,0,0,1,0,4</text>
</g>
<!-- 7&#45;&gt;9 -->
<g id="edge15" class="edge">
<title>7&#45;&gt;9</title>
<path fill="none" stroke="#25855c" d="M948.63,-193.75C961.14,-204.49 963.7,-215.23 956.31,-225.97"/>
<polygon fill="#25855c" stroke="#25855c" points="953.96,-223.35 949.74,-233.07 959.1,-228.1 953.96,-223.35"/>
<text xml:space="preserve" text-anchor="middle" x="936.8" y="-202.49" font-family="Helvetica,Arial,sans-serif" font-size="12.00" fill="#25855c">4.67e&#45;01</text>
</g>
<!-- 8&#45;&gt;6 -->
<g id="edge17" class="edge">
<title>8&#45;&gt;6</title>
<path fill="none" stroke="#288096" d="M438.14,-234.18C425.67,-223.44 423.16,-212.7 430.6,-201.96"/>
<polygon fill="#288096" stroke="#288096" points="432.95,-204.57 437.2,-194.86 427.83,-199.8 432.95,-204.57"/>
<text xml:space="preserve" text-anchor="middle" x="402.8" y="-202.64" font-family="Helvetica,Arial,sans-serif" font-size="12.00" fill="#288096">5.56e&#45;01</text>
</g>
<!-- 8&#45;&gt;9 -->
<g id="edge16" class="edge">
<title>8&#45;&gt;9</title>
<path fill="none" stroke="#26837c" d="M513.67,-250C597.99,-250 770.37,-250 861.91,-250"/>
<polygon fill="#26837c" stroke="#26837c" points="861.68,-253.5 871.68,-250 861.68,-246.5 861.68,-253.5"/>
<text xml:space="preserve" text-anchor="middle" x="669.85" y="-238.6" font-family="Helvetica,Arial,sans-serif" font-size="12.00" fill="#26837c">2.00e&#45;02</text>
</g>
<!-- 10 -->
<g id="node11" class="node">
<title>10</title>
<ellipse fill="#481769" fill-opacity="0.501961" stroke="black" cx="463.71" cy="-322" rx="49.71" ry="18"/>
<text xml:space="preserve" text-anchor="middle" x="463.71" y="-316.98" font-family="Helvetica,Arial,sans-serif" font-size="12.00">1,0,0,2,0,0,6</text>
</g>
<!-- 8&#45;&gt;10 -->
<g id="edge18" class="edge">
<title>8&#45;&gt;10</title>
<path fill="none" stroke="#2e74d7" d="M489.2,-265.75C501.71,-276.49 504.27,-287.23 496.88,-297.97"/>
<polygon fill="#2e74d7" stroke="#2e74d7" points="494.53,-295.35 490.31,-305.07 499.67,-300.1 494.53,-295.35"/>
<text xml:space="preserve" text-anchor="middle" x="477.37" y="-274.49" font-family="Helvetica,Arial,sans-serif" font-size="12.00" fill="#2e74d7">5.56e&#45;01</text>
</g>
<!-- 9&#45;&gt;7 -->
<g id="edge19" class="edge">
<title>9&#45;&gt;7</title>
<path fill="none" stroke="#b731e7" d="M897.57,-234.18C885.1,-223.44 882.59,-212.7 890.03,-201.96"/>
<polygon fill="#b731e7" stroke="#b731e7" points="892.38,-204.57 896.62,-194.86 887.25,-199.8 892.38,-204.57"/>
<text xml:space="preserve" text-anchor="middle" x="862.23" y="-202.64" font-family="Helvetica,Arial,sans-serif" font-size="12.00" fill="#b731e7">5.33e&#45;01</text>
</g>
<!-- 11 -->
<g id="node12" class="node">
<title>11</title>
<ellipse fill="#306a8e" fill-opacity="0.501961" stroke="black" cx="923.14" cy="-322" rx="49.71" ry="18"/>
<text xml:space="preserve" text-anchor="middle" x="923.14" y="-316.98" font-family="Helvetica,Arial,sans-serif" font-size="12.00">1,0,0,0,1,0,5</text>
</g>
<!-- 9&#45;&gt;11 -->
<g id="edge20" class="edge">
<title>9&#45;&gt;11</title>
<path fill="none" stroke="#d02ba8" d="M948.63,-265.75C961.14,-276.49 963.7,-287.23 956.31,-297.97"/>
<polygon fill="#d02ba8" stroke="#d02ba8" points="953.96,-295.35 949.74,-305.07 959.1,-300.1 953.96,-295.35"/>
<text xml:space="preserve" text-anchor="middle" x="936.8" y="-274.49" font-family="Helvetica,Arial,sans-serif" font-size="12.00" fill="#d02ba8">5.33e&#45;01</text>
</g>
<!-- 10&#45;&gt;8 -->
<g id="edge22" class="edge">
<title>10&#45;&gt;8</title>
<path fill="none" stroke="#a76723" d="M438.14,-306.18C425.67,-295.44 423.16,-284.7 430.6,-273.96"/>
<polygon fill="#a76723" stroke="#a76723" points="432.95,-276.57 437.2,-266.86 427.83,-271.8 432.95,-276.57"/>
<text xml:space="preserve" text-anchor="middle" x="402.8" y="-274.64" font-family="Helvetica,Arial,sans-serif" font-size="12.00" fill="#a76723">5.33e&#45;01</text>
</g>
<!-- 10&#45;&gt;11 -->
<g id="edge21" class="edge">
<title>10&#45;&gt;11</title>
<path fill="none" stroke="#e02659" d="M513.67,-322C597.99,-322 770.37,-322 861.91,-322"/>
<polygon fill="#e02659" stroke="#e02659" points="861.68,-325.5 871.68,-322 861.68,-318.5 861.68,-325.5"/>
<text xml:space="preserve" text-anchor="middle" x="669.85" y="-310.6" font-family="Helvetica,Arial,sans-serif" font-size="12.00" fill="#e02659">2.00e&#45;02</text>
</g>
<!-- 12 -->
<g id="node13" class="node">
<title>12</title>
<ellipse fill="#481769" fill-opacity="0.501961" stroke="black" cx="463.71" cy="-394" rx="49.71" ry="18"/>
<text xml:space="preserve" text-anchor="middle" x="463.71" y="-388.98" font-family="Helvetica,Arial,sans-serif" font-size="12.00">1,0,0,2,0,0,7</text>
</g>
<!-- 10&#45;&gt;12 -->
<g id="edge23" class="edge">
<title>10&#45;&gt;12</title>
<path fill="none" stroke="#837623" d="M489.2,-337.75C501.71,-348.49 504.27,-359.23 496.88,-369.97"/>
<polygon fill="#837623" stroke="#837623" points="494.53,-367.35 490.31,-377.07 499.67,-372.1 494.53,-367.35"/>
<text xml:space="preserve" text-anchor="middle" x="477.37" y="-346.49" font-family="Helvetica,Arial,sans-serif" font-size="12.00" fill="#837623">5.33e&#45;01</text>
</g>
<!-- 11&#45;&gt;9 -->
<g id="edge24" class="edge">
<title>11&#45;&gt;9</title>
<path fill="none" stroke="#598123" d="M897.57,-306.18C885.1,-295.44 882.59,-284.7 890.03,-273.96"/>
<polygon fill="#598123" stroke="#598123" points="892.38,-276.57 896.62,-266.86 887.25,-271.8 892.38,-276.57"/>
<text xml:space="preserve" text-anchor="middle" x="862.23" y="-274.64" font-family="Helvetica,Arial,sans-serif" font-size="12.00" fill="#598123">5.56e&#45;01</text>
</g>
<!-- 13 -->
<g id="node14" class="node">
<title>13</title>
<ellipse fill="#2d708e" fill-opacity="0.501961" stroke="black" cx="923.14" cy="-394" rx="49.71" ry="18"/>
<text xml:space="preserve" text-anchor="middle" x="923.14" y="-388.98" font-family="Helvetica,Arial,sans-serif" font-size="12.00">1,0,0,0,1,0,6</text>
</g>
<!-- 11&#45;&gt;13 -->
<g id="edge25" class="edge">
<title>11&#45;&gt;13</title>
<path fill="none" stroke="#25855c" d="M948.63,-337.75C961.14,-348.49 963.7,-359.23 956.31,-369.97"/>
<polygon fill="#25855c" stroke="#25855c" points="953.96,-367.35 949.74,-377.07 959.1,-372.1 953.96,-367.35"/>
<text xml:space="preserve" text-anchor="middle" x="936.8" y="-346.49" font-family="Helvetica,Arial,sans-serif" font-size="12.00" fill="#25855c">5.56e&#45;01</text>
</g>
<!-- 12&#45;&gt;10 -->
<g id="edge27" class="edge">
<title>12&#45;&gt;10</title>
<path fill="none" stroke="#288096" d="M438.14,-378.18C425.67,-367.44 423.16,-356.7 430.6,-345.96"/>
<polygon fill="#288096" stroke="#288096" points="432.95,-348.57 437.2,-338.86 427.83,-343.8 432.95,-348.57"/>
<text xml:space="preserve" text-anchor="middle" x="402.8" y="-346.64" font-family="Helvetica,Arial,sans-serif" font-size="12.00" fill="#288096">4.67e&#45;01</text>
</g>
<!-- 12&#45;&gt;13 -->
<g id="edge26" class="edge">
<title>12&#45;&gt;13</title>
<path fill="none" stroke="#26837c" d="M513.67,-394C597.99,-394 770.37,-394 861.91,-394"/>
<polygon fill="#26837c" stroke="#26837c" points="861.68,-397.5 871.68,-394 861.68,-390.5 861.68,-397.5"/>
<text xml:space="preserve" text-anchor="middle" x="669.85" y="-382.6" font-family="Helvetica,Arial,sans-serif" font-size="12.00" fill="#26837c">2.00e&#45;02</text>
</g>
<!-- 14 -->
<g id="node15" class="node">
<title>14</title>
<ellipse fill="#481a6c" fill-opacity="0.501961" stroke="black" cx="463.71" cy="-466" rx="49.71" ry="18"/>
<text xml:space="preserve" text-anchor="middle" x="463.71" y="-460.98" font-family="Helvetica,Arial,sans-serif" font-size="12.00">1,0,0,2,0,0,8</text>
</g>
<!-- 12&#45;&gt;14 -->
<g id="edge28" class="edge">
<title>12&#45;&gt;14</title>
<path fill="none" stroke="#2e74d7" d="M489.2,-409.75C501.71,-420.49 504.27,-431.23 496.88,-441.97"/>
<polygon fill="#2e74d7" stroke="#2e74d7" points="494.53,-439.35 490.31,-449.07 499.67,-444.1 494.53,-439.35"/>
<text xml:space="preserve" text-anchor="middle" x="477.37" y="-418.49" font-family="Helvetica,Arial,sans-serif" font-size="12.00" fill="#2e74d7">4.67e&#45;01</text>
</g>
<!-- 13&#45;&gt;11 -->
<g id="edge29" class="edge">
<title>13&#45;&gt;11</title>
<path fill="none" stroke="#b731e7" d="M897.57,-378.18C885.1,-367.44 882.59,-356.7 890.03,-345.96"/>
<polygon fill="#b731e7" stroke="#b731e7" points="892.38,-348.57 896.62,-338.86 887.25,-343.8 892.38,-348.57"/>
<text xml:space="preserve" text-anchor="middle" x="862.23" y="-346.64" font-family="Helvetica,Arial,sans-serif" font-size="12.00" fill="#b731e7">5.33e&#45;01</text>
</g>
<!-- 15 -->
<g id="node16" class="node">
<title>15</title>
<ellipse fill="#277e8e" fill-opacity="0.501961" stroke="black" cx="923.14" cy="-466" rx="49.71" ry="18"/>
<text xml:space="preserve" text-anchor="middle" x="923.14" y="-460.98" font-family="Helvetica,Arial,sans-serif" font-size="12.00">1,0,0,0,1,0,7</text>
</g>
<!-- 13&#45;&gt;15 -->
<g id="edge30" class="edge">
<title>13&#45;&gt;15</title>
<path fill="none" stroke="#d02ba8" d="M948.63,-409.75C961.14,-420.49 963.7,-431.23 956.31,-441.97"/>
<polygon fill="#d02ba8" stroke="#d02ba8" points="953.96,-439.35 949.74,-449.07 959.1,-444.1 953.96,-439.35"/>
<text xml:space="preserve" text-anchor="middle" x="936.8" y="-418.49" font-family="Helvetica,Arial,sans-serif" font-size="12.00" fill="#d02ba8">5.33e&#45;01</text>
</g>
<!-- 14&#45;&gt;12 -->
<g id="edge32" class="edge">
<title>14&#45;&gt;12</title>
<path fill="none" stroke="#a76723" d="M438.14,-450.18C425.67,-439.44 423.16,-428.7 430.6,-417.96"/>
<polygon fill="#a76723" stroke="#a76723" points="432.95,-420.57 437.2,-410.86 427.83,-415.8 432.95,-420.57"/>
<text xml:space="preserve" text-anchor="middle" x="402.8" y="-418.64" font-family="Helvetica,Arial,sans-serif" font-size="12.00" fill="#a76723">3.56e&#45;01</text>
</g>
<!-- 14&#45;&gt;15 -->
<g id="edge31" class="edge">
<title>14&#45;&gt;15</title>
<path fill="none" stroke="#e02659" d="M513.67,-466C597.99,-466 770.37,-466 861.91,-466"/>
<polygon fill="#e02659" stroke="#e02659" points="861.68,-469.5 871.68,-466 861.68,-462.5 861.68,-469.5"/>
<text xml:space="preserve" text-anchor="middle" x="669.85" y="-454.6" font-family="Helvetica,Arial,sans-serif" font-size="12.00" fill="#e02659">2.00e&#45;02</text>
</g>
<!-- 16 -->
<g id="node17" class="node">
<title>16</title>
<ellipse fill="#482878" fill-opacity="0.501961" stroke="black" cx="463.71" cy="-538" rx="49.71" ry="18"/>
<text xml:space="preserve" text-anchor="middle" x="463.71" y="-532.98" font-family="Helvetica,Arial,sans-serif" font-size="12.00">1,0,0,2,0,0,9</text>
</g>
<!-- 14&#45;&gt;16 -->
<g id="edge33" class="edge">
<title>14&#45;&gt;16</title>
<path fill="none" stroke="#837623" d="M489.2,-481.75C501.71,-492.49 504.27,-503.23 496.88,-513.97"/>
<polygon fill="#837623" stroke="#837623" points="494.53,-511.35 490.31,-521.07 499.67,-516.1 494.53,-511.35"/>
<text xml:space="preserve" text-anchor="middle" x="477.37" y="-490.49" font-family="Helvetica,Arial,sans-serif" font-size="12.00" fill="#837623">3.56e&#45;01</text>
</g>
<!-- 15&#45;&gt;13 -->
<g id="edge34" class="edge">
<title>15&#45;&gt;13</title>
<path fill="none" stroke="#598123" d="M897.57,-450.18C885.1,-439.44 882.59,-428.7 890.03,-417.96"/>
<polygon fill="#598123" stroke="#598123" points="892.38,-420.57 896.62,-410.86 887.25,-415.8 892.38,-420.57"/>
<text xml:space="preserve" text-anchor="middle" x="862.23" y="-418.64" font-family="Helvetica,Arial,sans-serif" font-size="12.00" fill="#598123">4.67e&#45;01</text>
</g>
<!-- 17 -->
<g id="node18" class="node">
<title>17</title>
<ellipse fill="#1fa088" fill-opacity="0.501961" stroke="black" cx="923.14" cy="-538" rx="49.71" ry="18"/>
<text xml:space="preserve" text-anchor="middle" x="923.14" y="-532.98" font-family="Helvetica,Arial,sans-serif" font-size="12.00">1,0,0,0,1,0,8</text>
</g>
<!-- 15&#45;&gt;17 -->
<g id="edge35" class="edge">
<title>15&#45;&gt;17</title>
<path fill="none" stroke="#25855c" d="M948.63,-481.75C961.14,-492.49 963.7,-503.23 956.31,-513.97"/>
<polygon fill="#25855c" stroke="#25855c" points="953.96,-511.35 949.74,-521.07 959.1,-516.1 953.96,-511.35"/>
<text xml:space="preserve" text-anchor="middle" x="936.8" y="-490.49" font-family="Helvetica,Arial,sans-serif" font-size="12.00" fill="#25855c">4.67e&#45;01</text>
</g>
<!-- 16&#45;&gt;14 -->
<g id="edge37" class="edge">
<title>16&#45;&gt;14</title>
<path fill="none" stroke="#288096" d="M438.14,-522.18C425.67,-511.44 423.16,-500.7 430.6,-489.96"/>
<polygon fill="#288096" stroke="#288096" points="432.95,-492.57 437.2,-482.86 427.83,-487.8 432.95,-492.57"/>
<text xml:space="preserve" text-anchor="middle" x="402.8" y="-490.64" font-family="Helvetica,Arial,sans-serif" font-size="12.00" fill="#288096">2.00e&#45;01</text>
</g>
<!-- 16&#45;&gt;17 -->
<g id="edge36" class="edge">
<title>16&#45;&gt;17</title>
<path fill="none" stroke="#26837c" d="M513.67,-538C597.99,-538 770.37,-538 861.91,-538"/>
<polygon fill="#26837c" stroke="#26837c" points="861.68,-541.5 871.68,-538 861.68,-534.5 861.68,-541.5"/>
<text xml:space="preserve" text-anchor="middle" x="669.85" y="-526.6" font-family="Helvetica,Arial,sans-serif" font-size="12.00" fill="#26837c">2.00e&#45;02</text>
</g>
<!-- 17&#45;&gt;15 -->
<g id="edge38" class="edge">
<title>17&#45;&gt;15</title>
<path fill="none" stroke="#2e74d7" d="M897.57,-522.18C885.1,-511.44 882.59,-500.7 890.03,-489.96"/>
<polygon fill="#2e74d7" stroke="#2e74d7" points="892.38,-492.57 896.62,-482.86 887.25,-487.8 892.38,-492.57"/>
<text xml:space="preserve" text-anchor="middle" x="862.23" y="-490.64" font-family="Helvetica,Arial,sans-serif" font-size="12.00" fill="#2e74d7">3.56e&#45;01</text>
</g>
<!-- 18 -->
<g id="node19" class="node">
<title>18</title>
<ellipse fill="#fde725" fill-opacity="0.501961" stroke="black" cx="923.14" cy="-610" rx="49.71" ry="18"/>
<text xml:space="preserve" text-anchor="middle" x="923.14" y="-604.98" font-family="Helvetica,Arial,sans-serif" font-size="12.00">1,0,0,0,1,0,9</text>
</g>
<!-- 17&#45;&gt;18 -->
<g id="edge39" class="edge">
<title>17&#45;&gt;18</title>
<path fill="none" stroke="#b731e7" d="M948.63,-553.75C961.14,-564.49 963.7,-575.23 956.31,-585.97"/>
<polygon fill="#b731e7" stroke="#b731e7" points="953.96,-583.35 949.74,-593.07 959.1,-588.1 953.96,-583.35"/>
<text xml:space="preserve" text-anchor="middle" x="936.8" y="-562.49" font-family="Helvetica,Arial,sans-serif" font-size="12.00" fill="#b731e7">3.56e&#45;01</text>
</g>
<!-- 18&#45;&gt;17 -->
<g id="edge40" class="edge">
<title>18&#45;&gt;17</title>
<path fill="none" stroke="#d02ba8" d="M897.57,-594.18C885.1,-583.44 882.59,-572.7 890.03,-561.96"/>
<polygon fill="#d02ba8" stroke="#d02ba8" points="892.38,-564.57 896.62,-554.86 887.25,-559.8 892.38,-564.57"/>
<text xml:space="preserve" text-anchor="middle" x="862.23" y="-562.64" font-family="Helvetica,Arial,sans-serif" font-size="12.00" fill="#d02ba8">2.00e&#45;01</text>
</g>
</g>
</svg>
